<svg width="200" height="200" viewBox="0 0 200 200" fill="none" xmlns="http://www.w3.org/2000/svg">
<path d="M70.3334 161.071C93.1612 161.071 111.667 142.565 111.667 119.737C111.667 96.9095 93.1612 78.4039 70.3334 78.4039C47.5056 78.4039 29 96.9095 29 119.737C29 142.565 47.5056 161.071 70.3334 161.071Z" stroke="#747474" stroke-width="2" stroke-miterlimit="10"/>
<path d="M100.42 120.667C123.248 120.667 141.754 102.161 141.754 79.3332C141.754 56.5055 123.248 37.9999 100.42 37.9999C77.5925 37.9999 59.0869 56.5055 59.0869 79.3332C59.0869 102.161 77.5925 120.667 100.42 120.667Z" stroke="#747474" stroke-width="2" stroke-miterlimit="10"/>
<path d="M129.578 162C152.405 162 170.911 143.494 170.911 120.667C170.911 97.8387 152.405 79.3331 129.578 79.3331C106.75 79.3331 88.2441 97.8387 88.2441 120.667C88.2441 143.494 106.75 162 129.578 162Z" stroke="#747474" stroke-width="2" stroke-miterlimit="10"/>
<path d="M96.7666 95.5449L98.1924 96.7885C99.0249 97.4781 100.072 97.8554 101.153 97.8554C102.234 97.8554 103.281 97.4781 104.114 96.7885L104.483 96.4605" stroke="#747474" stroke-width="2"/>
<path d="M93.5195 100.455L98.1749 104.523C99.0071 105.214 100.054 105.592 101.136 105.592C102.217 105.592 103.264 105.214 104.097 104.523L107.436 101.553" stroke="#747474" stroke-width="2"/>
<path d="M90.5811 106.933C91.5854 106.966 92.5489 107.338 93.3141 107.99L98.1836 112.244C99.0181 112.932 100.067 113.307 101.149 113.302C102.23 113.298 103.276 112.916 104.105 112.221L108.843 108.012C109.123 107.763 109.437 107.554 109.776 107.393" stroke="#747474" stroke-width="2"/>
<path d="M103.181 120.571C103.52 120.41 103.834 120.201 104.114 119.951L108.852 115.742C109.553 115.132 110.431 114.761 111.357 114.681" stroke="#747474" stroke-width="2"/>
<path d="M99.2271 120.644C98.8488 120.472 98.4974 120.247 98.184 119.974L93.3145 115.72C92.6742 115.189 91.903 114.84 91.0816 114.71C90.2603 114.579 89.4189 114.671 88.6455 114.977" stroke="#747474" stroke-width="2"/>
</svg>
