<svg width="200" height="200" viewBox="0 0 200 200" fill="none" xmlns="http://www.w3.org/2000/svg">
<path fill-rule="evenodd" clip-rule="evenodd" d="M111.662 119.119C108.088 120.127 104.317 120.667 100.42 120.667C77.7986 120.667 59.4216 102.494 59.0913 79.9512C41.7268 84.848 29 100.806 29 119.737C29 142.565 47.5056 161.071 70.3334 161.071C93.1612 161.071 111.667 142.565 111.667 119.737C111.667 119.531 111.665 119.325 111.662 119.119Z" fill="#427FAB"/>
<path fill-rule="evenodd" clip-rule="evenodd" d="M111.662 119.119C108.088 120.127 104.317 120.667 100.42 120.667C77.7986 120.667 59.4216 102.494 59.0913 79.9512C41.7268 84.848 29 100.806 29 119.737C29 142.565 47.5056 161.071 70.3334 161.071C93.1612 161.071 111.667 142.565 111.667 119.737C111.667 119.531 111.665 119.325 111.662 119.119Z" fill="url(#paint0_linear)"/>
<path d="M111.662 119.119L112.662 119.105L112.643 117.804L111.391 118.157L111.662 119.119ZM59.0913 79.9512L60.0911 79.9366L60.0721 78.6356L58.8198 78.9888L59.0913 79.9512ZM100.42 121.667C104.41 121.667 108.272 121.115 111.934 120.082L111.391 118.157C107.904 119.14 104.224 119.667 100.42 119.667V121.667ZM58.0914 79.9659C58.4297 103.054 77.2513 121.667 100.42 121.667V119.667C78.346 119.667 60.4135 101.934 60.0911 79.9366L58.0914 79.9659ZM58.8198 78.9888C41.0358 84.0038 28 100.347 28 119.737H30C30 101.266 42.4178 85.6921 59.3627 80.9137L58.8198 78.9888ZM28 119.737C28 143.117 46.9533 162.071 70.3334 162.071V160.071C48.0579 160.071 30 142.013 30 119.737H28ZM70.3334 162.071C93.7135 162.071 112.667 143.117 112.667 119.737H110.667C110.667 142.013 92.6089 160.071 70.3334 160.071V162.071ZM112.667 119.737C112.667 119.526 112.665 119.315 112.662 119.105L110.662 119.134C110.665 119.335 110.667 119.536 110.667 119.737H112.667Z" fill="#427FAB"/>
<path d="M111.662 119.119L112.662 119.105L112.643 117.804L111.391 118.157L111.662 119.119ZM59.0913 79.9512L60.0911 79.9366L60.0721 78.6356L58.8198 78.9888L59.0913 79.9512ZM100.42 121.667C104.41 121.667 108.272 121.115 111.934 120.082L111.391 118.157C107.904 119.14 104.224 119.667 100.42 119.667V121.667ZM58.0914 79.9659C58.4297 103.054 77.2513 121.667 100.42 121.667V119.667C78.346 119.667 60.4135 101.934 60.0911 79.9366L58.0914 79.9659ZM58.8198 78.9888C41.0358 84.0038 28 100.347 28 119.737H30C30 101.266 42.4178 85.6921 59.3627 80.9137L58.8198 78.9888ZM28 119.737C28 143.117 46.9533 162.071 70.3334 162.071V160.071C48.0579 160.071 30 142.013 30 119.737H28ZM70.3334 162.071C93.7135 162.071 112.667 143.117 112.667 119.737H110.667C110.667 142.013 92.6089 160.071 70.3334 160.071V162.071ZM112.667 119.737C112.667 119.526 112.665 119.315 112.662 119.105L110.662 119.134C110.665 119.335 110.667 119.536 110.667 119.737H112.667Z" fill="url(#paint1_linear)"/>
<path fill-rule="evenodd" clip-rule="evenodd" d="M88.2833 118.856C89.231 96.8683 107.357 79.3332 129.578 79.3332C133.801 79.3332 137.877 79.9667 141.715 81.1438C141.741 80.5435 141.754 79.9399 141.754 79.3333C141.754 56.5055 123.248 37.9999 100.42 37.9999C77.5925 37.9999 59.0869 56.5055 59.0869 79.3333C59.0869 97.9375 71.3782 113.671 88.2833 118.856Z" fill="#427FAB"/>
<path fill-rule="evenodd" clip-rule="evenodd" d="M88.2833 118.856C89.231 96.8683 107.357 79.3332 129.578 79.3332C133.801 79.3332 137.877 79.9667 141.715 81.1438C141.741 80.5435 141.754 79.9399 141.754 79.3333C141.754 56.5055 123.248 37.9999 100.42 37.9999C77.5925 37.9999 59.0869 56.5055 59.0869 79.3333C59.0869 97.9375 71.3782 113.671 88.2833 118.856Z" fill="url(#paint2_linear)"/>
<path d="M88.2833 118.856L87.9901 119.812L89.2267 120.191L89.2824 118.899L88.2833 118.856ZM141.715 81.1438L141.422 82.0998L142.658 82.4791L142.714 81.1869L141.715 81.1438ZM129.578 78.3332C106.819 78.3332 88.2549 96.2925 87.2843 118.813L89.2824 118.899C90.2071 97.4441 107.894 80.3332 129.578 80.3332V78.3332ZM142.008 80.1878C138.076 78.9818 133.902 78.3332 129.578 78.3332V80.3332C133.701 80.3332 137.678 80.9515 141.422 82.0998L142.008 80.1878ZM142.714 81.1869C142.74 80.5723 142.754 79.9543 142.754 79.3333H140.754C140.754 79.9256 140.741 80.5148 140.716 81.1007L142.714 81.1869ZM142.754 79.3333C142.754 55.9532 123.8 36.9999 100.42 36.9999V38.9999C122.696 38.9999 140.754 57.0578 140.754 79.3333H142.754ZM100.42 36.9999C77.0402 36.9999 58.0869 55.9532 58.0869 79.3333H60.0869C60.0869 57.0578 78.1448 38.9999 100.42 38.9999V36.9999ZM58.0869 79.3333C58.0869 98.3891 70.6768 114.502 87.9901 119.812L88.5766 117.9C72.0796 112.84 60.0869 97.4859 60.0869 79.3333H58.0869Z" fill="#427FAB"/>
<path d="M88.2833 118.856L87.9901 119.812L89.2267 120.191L89.2824 118.899L88.2833 118.856ZM141.715 81.1438L141.422 82.0998L142.658 82.4791L142.714 81.1869L141.715 81.1438ZM129.578 78.3332C106.819 78.3332 88.2549 96.2925 87.2843 118.813L89.2824 118.899C90.2071 97.4441 107.894 80.3332 129.578 80.3332V78.3332ZM142.008 80.1878C138.076 78.9818 133.902 78.3332 129.578 78.3332V80.3332C133.701 80.3332 137.678 80.9515 141.422 82.0998L142.008 80.1878ZM142.714 81.1869C142.74 80.5723 142.754 79.9543 142.754 79.3333H140.754C140.754 79.9256 140.741 80.5148 140.716 81.1007L142.714 81.1869ZM142.754 79.3333C142.754 55.9532 123.8 36.9999 100.42 36.9999V38.9999C122.696 38.9999 140.754 57.0578 140.754 79.3333H142.754ZM100.42 36.9999C77.0402 36.9999 58.0869 55.9532 58.0869 79.3333H60.0869C60.0869 57.0578 78.1448 38.9999 100.42 38.9999V36.9999ZM58.0869 79.3333C58.0869 98.3891 70.6768 114.502 87.9901 119.812L88.5766 117.9C72.0796 112.84 60.0869 97.4859 60.0869 79.3333H58.0869Z" fill="url(#paint3_linear)"/>
<path fill-rule="evenodd" clip-rule="evenodd" d="M99.5029 149.021C107.016 141.537 111.666 131.18 111.666 119.737C111.666 108.761 107.388 98.7835 100.407 91.3825C107.882 83.9361 118.192 79.3332 129.577 79.3332C152.405 79.3332 170.911 97.8388 170.911 120.667C170.911 143.494 152.405 162 129.577 162C117.726 162 107.04 157.012 99.5029 149.021Z" fill="#427FAB"/>
<path fill-rule="evenodd" clip-rule="evenodd" d="M99.5029 149.021C107.016 141.537 111.666 131.18 111.666 119.737C111.666 108.761 107.388 98.7835 100.407 91.3825C107.882 83.9361 118.192 79.3332 129.577 79.3332C152.405 79.3332 170.911 97.8388 170.911 120.667C170.911 143.494 152.405 162 129.577 162C117.726 162 107.04 157.012 99.5029 149.021Z" fill="url(#paint4_linear)"/>
<path d="M99.5029 149.021L98.7972 148.313L98.1078 149L98.7755 149.708L99.5029 149.021ZM100.407 91.3825L99.7014 90.674L99.012 91.3607L99.6796 92.0686L100.407 91.3825ZM100.209 149.73C107.903 142.066 112.666 131.457 112.666 119.737H110.666C110.666 130.904 106.13 141.009 98.7972 148.313L100.209 149.73ZM112.666 119.737C112.666 108.496 108.283 98.2756 101.135 90.6963L99.6796 92.0686C106.492 99.2915 110.666 109.026 110.666 119.737H112.666ZM129.577 78.3332C117.917 78.3332 107.356 83.0485 99.7014 90.674L101.113 92.0909C108.408 84.8237 118.467 80.3332 129.577 80.3332V78.3332ZM171.911 120.667C171.911 97.2865 152.957 78.3332 129.577 78.3332V80.3332C151.853 80.3332 169.911 98.3911 169.911 120.667H171.911ZM129.577 163C152.957 163 171.911 144.047 171.911 120.667H169.911C169.911 142.942 151.853 161 129.577 161V163ZM98.7755 149.708C106.493 157.89 117.439 163 129.577 163V161C118.013 161 107.586 156.134 100.23 148.335L98.7755 149.708Z" fill="#427FAB"/>
<path d="M99.5029 149.021L98.7972 148.313L98.1078 149L98.7755 149.708L99.5029 149.021ZM100.407 91.3825L99.7014 90.674L99.012 91.3607L99.6796 92.0686L100.407 91.3825ZM100.209 149.73C107.903 142.066 112.666 131.457 112.666 119.737H110.666C110.666 130.904 106.13 141.009 98.7972 148.313L100.209 149.73ZM112.666 119.737C112.666 108.496 108.283 98.2756 101.135 90.6963L99.6796 92.0686C106.492 99.2915 110.666 109.026 110.666 119.737H112.666ZM129.577 78.3332C117.917 78.3332 107.356 83.0485 99.7014 90.674L101.113 92.0909C108.408 84.8237 118.467 80.3332 129.577 80.3332V78.3332ZM171.911 120.667C171.911 97.2865 152.957 78.3332 129.577 78.3332V80.3332C151.853 80.3332 169.911 98.3911 169.911 120.667H171.911ZM129.577 163C152.957 163 171.911 144.047 171.911 120.667H169.911C169.911 142.942 151.853 161 129.577 161V163ZM98.7755 149.708C106.493 157.89 117.439 163 129.577 163V161C118.013 161 107.586 156.134 100.23 148.335L98.7755 149.708Z" fill="url(#paint5_linear)"/>
<path fill-rule="evenodd" clip-rule="evenodd" d="M111.662 119.119C108.087 120.127 104.317 120.667 100.42 120.667C77.7982 120.667 59.4212 102.494 59.0908 79.9512C62.6652 78.9433 66.4361 78.404 70.3329 78.404C92.9544 78.404 111.331 96.5766 111.662 119.119Z" fill="#96C0D7"/>
<path d="M111.662 119.119L111.933 120.082L112.673 119.873L112.662 119.105L111.662 119.119ZM59.0908 79.9512L58.8194 78.9888L58.0797 79.1974L58.0909 79.9659L59.0908 79.9512ZM100.42 121.667C104.409 121.667 108.271 121.115 111.933 120.082L111.39 118.157C107.903 119.14 104.224 119.667 100.42 119.667V121.667ZM58.0909 79.9659C58.4293 103.054 77.2508 121.667 100.42 121.667V119.667C78.3456 119.667 60.4131 101.934 60.0907 79.9366L58.0909 79.9659ZM70.3329 77.404C66.3434 77.404 62.4813 77.9561 58.8194 78.9888L59.3622 80.9137C62.8492 79.9304 66.5288 79.404 70.3329 79.404V77.404ZM112.662 119.105C112.323 96.0162 93.5018 77.404 70.3329 77.404V79.404C92.407 79.404 110.34 97.1369 110.662 119.134L112.662 119.105Z" fill="#96C0D7"/>
<path fill-rule="evenodd" clip-rule="evenodd" d="M141.715 81.1438C140.767 103.132 122.641 120.667 100.42 120.667C96.1966 120.667 92.121 120.033 88.2832 118.856C89.2309 96.8683 107.356 79.3332 129.578 79.3332C133.801 79.3332 137.877 79.9667 141.715 81.1438Z" fill="#96C0D7"/>
<path d="M141.715 81.1438L142.714 81.1869L142.747 80.4145L142.008 80.1878L141.715 81.1438ZM88.2832 118.856L87.2841 118.813L87.2508 119.585L87.99 119.812L88.2832 118.856ZM100.42 121.667C123.179 121.667 141.743 103.707 142.714 81.1869L140.716 81.1007C139.791 102.556 122.103 119.667 100.42 119.667V121.667ZM87.99 119.812C91.9217 121.018 96.0961 121.667 100.42 121.667V119.667C96.2971 119.667 92.3203 119.048 88.5764 117.9L87.99 119.812ZM129.578 78.3332C106.819 78.3332 88.2548 96.2925 87.2841 118.813L89.2823 118.899C90.207 97.4441 107.894 80.3332 129.578 80.3332V78.3332ZM142.008 80.1878C138.076 78.9818 133.902 78.3332 129.578 78.3332V80.3332C133.701 80.3332 137.678 80.9515 141.421 82.0998L142.008 80.1878Z" fill="#96C0D7"/>
<path fill-rule="evenodd" clip-rule="evenodd" d="M100.408 91.3824C92.8941 98.8668 88.2441 109.224 88.2441 120.667C88.2441 131.643 92.5228 141.62 99.5033 149.021C107.017 141.537 111.667 131.18 111.667 119.737C111.667 108.761 107.388 98.7835 100.408 91.3824Z" fill="#96C0D7"/>
<path d="M100.408 91.3824L101.135 90.6963L100.43 89.9487L99.7018 90.674L100.408 91.3824ZM99.5033 149.021L98.7759 149.708L99.481 150.455L100.209 149.73L99.5033 149.021ZM99.7018 90.674C92.0077 98.3383 87.2441 108.947 87.2441 120.667H89.2441C89.2441 109.5 93.7805 99.3953 101.113 92.0909L99.7018 90.674ZM87.2441 120.667C87.2441 131.908 91.6273 142.128 98.7759 149.708L100.231 148.335C93.4184 141.112 89.2441 131.378 89.2441 120.667H87.2441ZM100.209 149.73C107.903 142.066 112.667 131.457 112.667 119.737H110.667C110.667 130.904 106.13 141.009 98.7976 148.313L100.209 149.73ZM112.667 119.737C112.667 108.496 108.284 98.2756 101.135 90.6963L99.68 92.0686C106.492 99.2915 110.667 109.026 110.667 119.737H112.667Z" fill="#96C0D7"/>
<path fill-rule="evenodd" clip-rule="evenodd" d="M100.42 120.667C104.317 120.667 108.088 120.127 111.662 119.119C111.505 108.387 107.257 98.6444 100.408 91.3824C93.2925 98.47 88.7453 108.134 88.2832 118.856C92.121 120.033 96.1966 120.667 100.42 120.667Z" fill="#E4EFF5"/>
<path d="M111.662 119.119L111.934 120.082L112.673 119.873L112.662 119.105L111.662 119.119ZM100.408 91.3824L101.135 90.6963L100.43 89.9487L99.7019 90.674L100.408 91.3824ZM88.2832 118.856L87.2841 118.813L87.2508 119.585L87.99 119.812L88.2832 118.856ZM111.391 118.157C107.904 119.14 104.224 119.667 100.42 119.667V121.667C104.41 121.667 108.272 121.115 111.934 120.082L111.391 118.157ZM99.6802 92.0686C106.365 99.1558 110.509 108.661 110.662 119.134L112.662 119.105C112.501 108.112 108.149 98.133 101.135 90.6963L99.6802 92.0686ZM99.7019 90.674C92.4159 97.9318 87.7575 107.83 87.2841 118.813L89.2823 118.899C89.7332 108.437 94.1692 99.0082 101.113 92.0909L99.7019 90.674ZM100.42 119.667C96.2971 119.667 92.3203 119.048 88.5764 117.9L87.99 119.812C91.9217 121.018 96.0961 121.667 100.42 121.667V119.667Z" fill="#E4EFF5"/>
<defs>
<linearGradient id="paint0_linear" x1="29" y1="161.071" x2="111.667" y2="161.071" gradientUnits="userSpaceOnUse">
<stop stop-color="white" stop-opacity="0.25"/>
<stop offset="1" stop-color="white" stop-opacity="0"/>
</linearGradient>
<linearGradient id="paint1_linear" x1="29" y1="161.071" x2="111.667" y2="161.071" gradientUnits="userSpaceOnUse">
<stop stop-color="white" stop-opacity="0.25"/>
<stop offset="1" stop-color="white" stop-opacity="0"/>
</linearGradient>
<linearGradient id="paint2_linear" x1="59.0869" y1="118.856" x2="141.754" y2="118.856" gradientUnits="userSpaceOnUse">
<stop stop-color="white" stop-opacity="0.25"/>
<stop offset="1" stop-color="white" stop-opacity="0"/>
</linearGradient>
<linearGradient id="paint3_linear" x1="59.0869" y1="118.856" x2="141.754" y2="118.856" gradientUnits="userSpaceOnUse">
<stop stop-color="white" stop-opacity="0.25"/>
<stop offset="1" stop-color="white" stop-opacity="0"/>
</linearGradient>
<linearGradient id="paint4_linear" x1="99.5029" y1="162" x2="170.911" y2="162" gradientUnits="userSpaceOnUse">
<stop stop-color="white" stop-opacity="0.25"/>
<stop offset="1" stop-color="white" stop-opacity="0"/>
</linearGradient>
<linearGradient id="paint5_linear" x1="99.5029" y1="162" x2="170.911" y2="162" gradientUnits="userSpaceOnUse">
<stop stop-color="white" stop-opacity="0.25"/>
<stop offset="1" stop-color="white" stop-opacity="0"/>
</linearGradient>
</defs>
</svg>
