<svg width="200" height="200" viewBox="0 0 200 200" fill="none" xmlns="http://www.w3.org/2000/svg">
<path opacity="0.2" d="M130.578 163C153.405 163 171.911 144.494 171.911 121.667C171.911 98.8388 153.405 80.3333 130.578 80.3333C107.75 80.3333 89.2441 98.8388 89.2441 121.667C89.2441 144.494 107.75 163 130.578 163Z" fill="#FAFAFA" stroke="#FAFAFA" stroke-width="2" stroke-miterlimit="10"/>
<path opacity="0.2" d="M101.42 121.667C124.248 121.667 142.754 103.161 142.754 80.3333C142.754 57.5055 124.248 38.9999 101.42 38.9999C78.5925 38.9999 60.0869 57.5055 60.0869 80.3333C60.0869 103.161 78.5925 121.667 101.42 121.667Z" fill="#FAFAFA" stroke="#FAFAFA" stroke-width="2" stroke-miterlimit="10"/>
<path opacity="0.2" d="M71.3334 162.071C94.1612 162.071 112.667 143.565 112.667 120.737C112.667 97.9095 94.1612 79.4039 71.3334 79.4039C48.5056 79.4039 30 97.9095 30 120.737C30 143.565 48.5056 162.071 71.3334 162.071Z" fill="#FAFAFA" stroke="#FAFAFA" stroke-width="2" stroke-miterlimit="10"/>
<g opacity="0.2">
<path fill-rule="evenodd" clip-rule="evenodd" d="M101.408 92.3824C93.8941 99.8668 89.2441 110.224 89.2441 121.667C89.2441 132.643 93.5228 142.62 100.503 150.021C108.017 142.537 112.667 132.18 112.667 120.737C112.667 109.761 108.388 99.7835 101.408 92.3824Z" fill="#FAFAFA"/>
<path d="M101.408 92.3824L102.135 91.6963L101.43 90.9487L100.702 91.674L101.408 92.3824ZM100.503 150.021L99.7758 150.708L100.481 151.455L101.209 150.73L100.503 150.021ZM100.702 91.674C93.0077 99.3383 88.2441 109.947 88.2441 121.667H90.2441C90.2441 110.5 94.7805 100.395 102.113 93.0909L100.702 91.674ZM88.2441 121.667C88.2441 132.908 92.6273 143.128 99.7758 150.708L101.231 149.335C94.4183 142.112 90.2441 132.378 90.2441 121.667H88.2441ZM101.209 150.73C108.903 143.066 113.667 132.457 113.667 120.737H111.667C111.667 131.904 107.13 142.009 99.7976 149.313L101.209 150.73ZM113.667 120.737C113.667 109.496 109.284 99.2756 102.135 91.6963L100.68 93.0686C107.493 100.291 111.667 110.026 111.667 120.737H113.667Z" fill="#FAFAFA"/>
</g>
<g opacity="0.2">
<path fill-rule="evenodd" clip-rule="evenodd" d="M112.663 120.119C109.088 121.127 105.317 121.667 101.421 121.667C78.7992 121.667 60.4221 103.494 60.0918 80.9511C63.6661 79.9432 67.437 79.4039 71.3337 79.4039C93.9552 79.4039 112.332 97.5766 112.663 120.119Z" fill="#FAFAFA"/>
<path d="M112.663 120.119L112.934 121.082L113.674 120.873L113.662 120.105L112.663 120.119ZM60.0918 80.9511L59.8204 79.9887L59.0806 80.1973L59.0919 80.9658L60.0918 80.9511ZM101.421 122.667C105.41 122.667 109.272 122.115 112.934 121.082L112.391 119.157C108.904 120.14 105.225 120.667 101.421 120.667V122.667ZM59.0919 80.9658C59.4302 104.054 78.2518 122.667 101.421 122.667V120.667C79.3465 120.667 61.414 102.934 61.0917 80.9365L59.0919 80.9658ZM71.3337 78.4039C67.3443 78.4039 63.4822 78.956 59.8204 79.9887L60.3632 81.9136C63.8501 80.9303 67.5296 80.4039 71.3337 80.4039V78.4039ZM113.662 120.105C113.324 97.0162 94.5026 78.4039 71.3337 78.4039V80.4039C93.4079 80.4039 111.34 98.1369 111.663 120.134L113.662 120.105Z" fill="#FAFAFA"/>
</g>
<g opacity="0.2">
<path fill-rule="evenodd" clip-rule="evenodd" d="M142.715 82.1439C141.767 104.132 123.642 121.667 101.42 121.667C97.1968 121.667 93.1211 121.033 89.2832 119.856C90.2309 97.8683 108.357 80.3333 130.578 80.3333C134.801 80.3333 138.877 80.9668 142.715 82.1439Z" fill="#FAFAFA"/>
<path d="M142.715 82.1439L143.714 82.187L143.747 81.4146L143.008 81.1879L142.715 82.1439ZM89.2832 119.856L88.2841 119.813L88.2508 120.585L88.99 120.812L89.2832 119.856ZM101.42 122.667C124.179 122.667 142.743 104.707 143.714 82.187L141.716 82.1009C140.791 103.556 123.104 120.667 101.42 120.667V122.667ZM88.99 120.812C92.9218 122.018 97.0963 122.667 101.42 122.667V120.667C97.2973 120.667 93.3204 120.048 89.5764 118.9L88.99 120.812ZM130.578 79.3333C107.819 79.3333 89.2548 97.2925 88.2841 119.813L90.2823 119.899C91.2071 98.444 108.894 81.3333 130.578 81.3333V79.3333ZM143.008 81.1879C139.076 79.9819 134.902 79.3333 130.578 79.3333V81.3333C134.701 81.3333 138.678 81.9516 142.422 83.1L143.008 81.1879Z" fill="#FAFAFA"/>
</g>
<g opacity="0.2">
<path fill-rule="evenodd" clip-rule="evenodd" d="M101.408 92.3824C94.2926 99.47 89.7454 109.134 89.2832 119.856C93.1211 121.033 97.1968 121.667 101.42 121.667C105.317 121.667 109.088 121.127 112.662 120.119C112.505 109.387 108.257 99.6444 101.408 92.3824Z" fill="#FAFAFA"/>
<path d="M89.2832 119.856L88.2841 119.813L88.2508 120.585L88.99 120.812L89.2832 119.856ZM101.408 92.3824L102.135 91.6963L101.43 90.9487L100.702 91.674L101.408 92.3824ZM112.662 120.119L112.934 121.082L113.673 120.873L113.662 120.105L112.662 120.119ZM90.2823 119.899C90.7332 109.437 95.1692 100.008 102.113 93.0909L100.702 91.674C93.4159 98.9318 88.7575 108.83 88.2841 119.813L90.2823 119.899ZM101.42 120.667C97.2973 120.667 93.3204 120.048 89.5764 118.9L88.99 120.812C92.9218 122.018 97.0963 122.667 101.42 122.667V120.667ZM112.391 119.157C108.904 120.14 105.225 120.667 101.42 120.667V122.667C105.41 122.667 109.272 122.115 112.934 121.082L112.391 119.157ZM113.662 120.105C113.501 109.112 109.149 99.133 102.135 91.6963L100.68 93.0686C107.365 100.156 111.509 109.661 111.662 120.134L113.662 120.105Z" fill="#FAFAFA"/>
</g>
</svg>
