<svg width="49" height="48" viewBox="0 0 49 48" fill="none" xmlns="http://www.w3.org/2000/svg">
<g filter="url(#filter0_d)">
<path fill-rule="evenodd" clip-rule="evenodd" d="M22.771 29.2728C22.7752 29.2749 22.7814 29.2791 22.7856 29.2812L22.6145 29.3271L22.771 29.2728ZM11.3512 32.3928C11.5682 32.3928 11.779 32.4617 11.9564 32.5848L14.4482 34.3546C15.4896 35.0933 16.7188 35.4857 18.0023 35.4857L28.1783 35.4857C32.5087 35.4857 33.2225 35.0245 33.356 33.4488L30.2653 33.4488C29.6872 33.4488 29.2218 32.9834 29.2218 32.4053C29.2218 31.8293 29.6872 31.3619 30.2653 31.3619L34.2827 31.3619C34.65 31.2408 35.6454 30.7608 35.6246 29.1539L30.2653 29.1539C29.6872 29.1539 29.2218 28.6864 29.2218 28.1104C29.2218 27.5323 29.6872 27.0669 30.2653 27.0669L36.3237 27.0669C36.6701 26.8707 37.4757 26.2927 37.5696 25.22L30.2653 25.22C29.6872 25.22 29.2218 24.7525 29.2218 24.1765C29.2218 23.5984 29.6872 23.133 30.2653 23.133L37.411 23.133C37.436 23.1309 37.4569 23.1184 37.482 23.1184L41.7435 23.1184C42.908 23.1184 43.8013 22.3107 43.8242 21.2401C43.7992 20.0986 42.8079 19.0196 41.7435 19.0196L26.8072 19.0196C26.3647 19.0196 25.9724 18.742 25.8242 18.3267C25.674 17.9177 25.8054 17.4481 26.1435 17.1685L30.0294 13.9817C30.3967 13.6144 30.6367 13.0634 30.6367 12.4958L30.6367 12.4937C30.6367 11.926 30.3967 11.3751 29.9585 10.941C29.2635 10.2565 28.099 10.2815 27.3623 10.9953L23.2385 13.8753C21.3832 15.1671 19.3567 16.2064 17.2197 16.9619C15.1244 17.6485 12.0587 19.2554 12.0587 20.5473C12.0587 21.1212 11.5933 21.5887 11.0173 21.5907L9.39569 21.5928L9.39569 32.3928L10.7856 32.3928L11.3512 32.3928Z" fill="white"/>
<mask id="mask0" mask-type="alpha" maskUnits="userSpaceOnUse" x="27" y="37" width="3" height="1">
<path fill-rule="evenodd" clip-rule="evenodd" d="M29.4648 37.7433L27.3779 37.7433L27.3779 37.5312L29.4648 37.5312L29.4648 37.7433H29.4648Z" fill="white"/>
</mask>
<g mask="url(#mask0)">
<path fill-rule="evenodd" clip-rule="evenodd" d="M29.4648 37.5312C29.229 37.5417 28.9911 37.55 28.7365 37.5542C28.9869 37.55 29.2353 37.5438 29.4648 37.5312Z" fill="white"/>
</g>
<mask id="mask1" mask-type="alpha" maskUnits="userSpaceOnUse" x="3" y="17" width="2" height="3">
<path fill-rule="evenodd" clip-rule="evenodd" d="M3.13552 19.4932L3.13552 17.4062L4.51562 17.4062L4.51562 19.4932L3.13552 19.4932Z" fill="white"/>
</mask>
<g mask="url(#mask1)">
<path fill-rule="evenodd" clip-rule="evenodd" d="M4.51562 17.4062C4.01684 17.7443 3.61823 18.2223 3.38241 18.7836C3.61823 18.2223 4.01684 17.7443 4.51562 17.4062Z" fill="white"/>
</g>
<mask id="mask2" mask-type="alpha" maskUnits="userSpaceOnUse" x="7" y="35" width="3" height="3">
<path fill-rule="evenodd" clip-rule="evenodd" d="M9.15234 37.7428L7.06539 37.7428L7.06539 35.8301L9.15234 35.8301L9.15234 37.7428H9.15234Z" fill="white"/>
</mask>
<g mask="url(#mask2)">
<path fill-rule="evenodd" clip-rule="evenodd" d="M9.15234 35.8301C8.99374 36.2036 8.76417 36.5417 8.48243 36.8256C8.76417 36.5417 8.99374 36.2036 9.15234 35.8301Z" fill="white"/>
</g>
<path fill-rule="evenodd" clip-rule="evenodd" d="M9.15234 18.7836C8.91443 18.2222 8.51791 17.7443 8.01913 17.4062C8.51791 17.7443 8.91443 18.2222 9.15234 18.7836Z" fill="white"/>
<path fill-rule="evenodd" clip-rule="evenodd" d="M7.30859 34.6112L7.30859 33.3924L7.30859 20.5534L7.30859 20.0025C7.30859 19.4265 6.84112 18.959 6.26512 18.959C5.68912 18.959 5.22164 19.4265 5.22164 20.0025L5.22164 34.6112C5.22164 35.1872 5.68912 35.6546 6.26512 35.6546C6.84111 35.6546 7.30859 35.1872 7.30859 34.6112Z" fill="white"/>
<mask id="mask3" mask-type="alpha" maskUnits="userSpaceOnUse" x="3" y="35" width="2" height="3">
<path fill-rule="evenodd" clip-rule="evenodd" d="M4.05078 37.7432L3.13398 37.7432L3.13398 35.8301L4.05078 35.8301L4.05078 37.7432H4.05078Z" fill="white"/>
</mask>
<g mask="url(#mask3)">
<path fill-rule="evenodd" clip-rule="evenodd" d="M4.05078 36.8256C3.76695 36.5417 3.53739 36.2057 3.38087 35.8301C3.53739 36.2057 3.76695 36.5417 4.05078 36.8256Z" fill="white"/>
</g>
<mask id="mask4" mask-type="alpha" maskUnits="userSpaceOnUse" x="3" y="8" width="43" height="30">
<path fill-rule="evenodd" clip-rule="evenodd" d="M3.13563 23.0445L3.13563 8.34765L45.9141 8.34766L45.9141 23.0445L45.9141 37.7414L3.13563 37.7414L3.13563 23.0445Z" fill="white"/>
</mask>
<g mask="url(#mask4)">
<path fill-rule="evenodd" clip-rule="evenodd" d="M5.22259 34.6113L5.22259 20.0026C5.22259 19.4266 5.69006 18.9591 6.26606 18.9591C6.84206 18.9591 7.30954 19.4266 7.30954 20.0026L7.30954 20.5536L7.30954 33.3925L7.30954 34.6113C7.30954 35.1873 6.84206 35.6548 6.26606 35.6548C5.69006 35.6548 5.22259 35.1873 5.22259 34.6113ZM9.3965 21.5949L11.0201 21.5908C11.5961 21.5887 12.0615 21.1212 12.0615 20.5473C12.0615 19.2576 15.1273 17.6485 17.2205 16.9619C19.3596 16.2064 21.3861 15.1692 23.2393 13.8753L27.3631 10.9974C28.0998 10.2816 29.2664 10.2565 29.9593 10.941C30.3975 11.3751 30.6396 11.9261 30.6396 12.4937L30.6396 12.4958C30.6396 13.0635 30.3975 13.6144 30.0302 13.9817L26.1464 17.1706C25.8062 17.4482 25.6748 17.9177 25.8271 18.3268C25.9753 18.7421 26.3676 19.0196 26.808 19.0196L41.7443 19.0196C42.8108 19.0196 43.8021 20.0986 43.8271 21.2402C43.8041 22.3108 42.9088 23.1184 41.7443 23.1184L37.4828 23.1184C37.4577 23.1184 37.4368 23.1309 37.4139 23.133L30.2661 23.133C29.6901 23.133 29.2226 23.6005 29.2226 24.1765C29.2226 24.7525 29.6901 25.22 30.2661 25.22L37.5725 25.22C37.4765 26.2927 36.673 26.8708 36.3245 27.0669L30.2661 27.0669C29.6901 27.0669 29.2226 27.5323 29.2226 28.1104C29.2226 28.6864 29.6901 29.1539 30.2661 29.1539L35.6275 29.1539C35.6462 30.7609 34.6508 31.2409 34.2855 31.3619L30.2661 31.3619C29.6901 31.3619 29.2226 31.8294 29.2226 32.4054C29.2226 32.9835 29.6901 33.4489 30.2661 33.4489L33.3568 33.4489C33.2233 35.0245 32.5095 35.4857 28.1791 35.4857L18.0052 35.4857C16.7196 35.4857 15.4904 35.0934 14.449 34.3546L11.9572 32.5849C11.7798 32.4617 11.569 32.3949 11.3541 32.3949L10.7885 32.3949L9.3965 32.3949L9.3965 21.5949ZM8.48032 36.8256C8.76206 36.5417 8.99163 36.2036 9.15024 35.8301C9.30884 35.4565 9.3965 35.0433 9.3965 34.6113L9.3965 34.4819L10.7885 34.4819L11.0202 34.4819L13.2407 36.0576C14.6389 37.0489 16.2855 37.5727 18.0052 37.5727L28.1791 37.5727C28.3857 37.5727 28.5401 37.5581 28.7342 37.5539C28.9888 37.5497 29.2268 37.5414 29.4647 37.5309C34.3481 37.3243 35.3186 35.9156 35.4605 33.1296C36.6146 32.5431 37.9148 31.1699 37.6956 28.6656C38.4052 28.1793 39.361 27.1963 39.5885 25.6436C39.6469 25.5143 39.6824 25.3723 39.6824 25.22L39.6824 25.2054L41.7443 25.2054C44.0379 25.2054 45.8681 23.4836 45.9141 21.2402C45.8661 18.9069 43.9565 16.9327 41.7443 16.9327L29.7214 16.9327L31.4264 15.5303C32.2654 14.7059 32.7266 13.6269 32.7266 12.4958L32.7266 12.4937C32.7266 11.3647 32.2654 10.2857 31.4264 9.45721C29.9301 7.97964 27.457 7.99843 26.0421 9.39043L22.0497 12.164C20.3468 13.3494 18.4873 14.301 16.5485 14.9856C15.5739 15.3049 11.1454 16.8826 10.1666 19.5059L9.34641 19.508C9.30676 19.2555 9.24624 19.0113 9.15024 18.7838C8.91233 18.2224 8.5158 17.7445 8.01702 17.4064C7.51615 17.0683 6.91511 16.8722 6.26606 16.8722C5.61702 16.8722 5.01598 17.0683 4.51511 17.4064C4.01632 17.7445 3.6198 18.2224 3.38189 18.7838C3.22328 19.1595 3.13563 19.5706 3.13563 20.0026L3.13563 34.6113C3.13563 35.0433 3.22328 35.4565 3.38189 35.8301C3.5405 36.2036 3.77006 36.5417 4.0518 36.8256C4.61945 37.3911 5.40206 37.7417 6.26606 37.7417C7.13006 37.7417 7.91267 37.3911 8.48032 36.8256Z" fill="black"/>
</g>
</g>
<defs>
<filter id="filter0_d" x="0.136719" y="6.34766" width="48.7784" height="35.3937" filterUnits="userSpaceOnUse" color-interpolation-filters="sRGB">
<feFlood flood-opacity="0" result="BackgroundImageFix"/>
<feColorMatrix in="SourceAlpha" type="matrix" values="0 0 0 0 0 0 0 0 0 0 0 0 0 0 0 0 0 0 127 0"/>
<feOffset dy="1"/>
<feGaussianBlur stdDeviation="1.5"/>
<feColorMatrix type="matrix" values="0 0 0 0 0 0 0 0 0 0 0 0 0 0 0 0 0 0 0.2 0"/>
<feBlend mode="normal" in2="BackgroundImageFix" result="effect1_dropShadow"/>
<feBlend mode="normal" in="SourceGraphic" in2="effect1_dropShadow" result="shape"/>
</filter>
</defs>
</svg>
