<svg width="72" height="72" viewBox="0 0 72 72" fill="none" xmlns="http://www.w3.org/2000/svg">
<g clip-path="url(#clip0)">
<path fill-rule="evenodd" clip-rule="evenodd" d="M34.3666 20.9142C34.105 19.635 32.9763 18.72 31.6705 18.72C30.147 18.72 28.909 19.9536 28.8677 21.4767C28.8052 23.7855 28.6542 27.1059 28.2892 29.6738C28.264 29.8515 28.235 30.0273 28.2028 30.2011C27.9003 30.5549 27.6567 30.965 27.4896 31.4192L27.3937 31.68H21.6006L21.6006 46.08H26.864L27.0079 46.4712C27.8761 48.8315 30.1242 50.4 32.6391 50.4H45.5206C46.6252 50.4 47.5206 49.5045 47.5206 48.4V45.6947C48.3814 45.1967 48.9606 44.266 48.9606 43.2C48.9606 42.134 48.3814 41.2032 47.5206 40.7053V40.32C49.1112 40.32 50.4006 39.0306 50.4006 37.44C50.4006 35.851 49.1137 34.5625 47.5253 34.56H48.9606C50.5512 34.56 51.8406 33.2706 51.8406 31.68C51.8406 30.0894 50.5512 28.8 48.9606 28.8H47.5206L35.7036 28.8C35.4295 26.3513 34.9732 23.8814 34.3666 20.9142Z" fill="white"/>
<path d="M31.6705 18.72V19.72V18.72ZM34.3666 20.9142L35.3463 20.7139V20.7139L34.3666 20.9142ZM28.8677 21.4767L29.8674 21.5037V21.5037L28.8677 21.4767ZM28.2892 29.6738L29.2793 29.8145L28.2892 29.6738ZM28.2028 30.2011L28.9628 30.851C29.077 30.7174 29.154 30.5562 29.186 30.3835L28.2028 30.2011ZM27.4896 31.4192L26.5511 31.0739L26.5511 31.0739L27.4896 31.4192ZM27.3937 31.68V32.68C27.8128 32.68 28.1875 32.4186 28.3322 32.0252L27.3937 31.68ZM21.6006 31.68V30.68C21.0483 30.68 20.6006 31.1277 20.6006 31.68L21.6006 31.68ZM21.6006 46.08H20.6006C20.6006 46.3452 20.7059 46.5995 20.8935 46.7871C21.081 46.9746 21.3354 47.08 21.6006 47.08V46.08ZM26.864 46.08L27.8026 45.7348C27.6579 45.3414 27.2832 45.08 26.864 45.08V46.08ZM27.0079 46.4712L27.9465 46.126L27.9465 46.126L27.0079 46.4712ZM47.5206 45.6947L47.0199 44.8291C46.7109 45.0078 46.5206 45.3377 46.5206 45.6947H47.5206ZM47.5206 40.7053H46.5206C46.5206 41.0622 46.7109 41.3921 47.0199 41.5709L47.5206 40.7053ZM47.5206 40.32V39.32C46.9683 39.32 46.5206 39.7677 46.5206 40.32H47.5206ZM47.5253 34.56V33.56C46.9734 33.56 46.5258 34.0072 46.5253 34.5592C46.5249 35.1111 46.9717 35.5591 47.5237 35.56L47.5253 34.56ZM47.5206 28.8V29.8V28.8ZM35.7036 28.8L34.7098 28.9112C34.7665 29.4173 35.1944 29.8 35.7036 29.8V28.8ZM31.6705 19.72C32.5046 19.72 33.2211 20.3041 33.3868 21.1146L35.3463 20.7139C34.9889 18.9659 33.4479 17.72 31.6705 17.72V19.72ZM29.8674 21.5037C29.8943 20.5087 30.7022 19.72 31.6705 19.72V17.72C29.5918 17.72 27.9236 19.3986 27.8681 21.4496L29.8674 21.5037ZM29.2793 29.8145C29.6528 27.1864 29.8047 23.8176 29.8674 21.5037L27.8681 21.4496C27.8057 23.7533 27.6555 27.0254 27.2992 29.5331L29.2793 29.8145ZM29.186 30.3835C29.2207 30.1964 29.252 30.0067 29.2793 29.8145L27.2992 29.5331C27.276 29.6963 27.2493 29.8581 27.2195 30.0187L29.186 30.3835ZM28.4282 31.7644C28.5536 31.4233 28.7363 31.116 28.9628 30.851L27.4427 29.5513C27.0644 29.9938 26.7597 30.5068 26.5511 31.0739L28.4282 31.7644ZM28.3322 32.0252L28.4282 31.7644L26.5511 31.0739L26.4552 31.3348L28.3322 32.0252ZM21.6006 32.68H27.3937V30.68H21.6006V32.68ZM22.6006 46.08L22.6006 31.68L20.6006 31.68L20.6006 46.08H22.6006ZM26.864 45.08H21.6006V47.08H26.864V45.08ZM27.9465 46.126L27.8026 45.7348L25.9255 46.4252L26.0694 46.8164L27.9465 46.126ZM32.6391 49.4C30.5433 49.4 28.6699 48.0929 27.9465 46.126L26.0694 46.8164C27.0823 49.5701 29.705 51.4 32.6391 51.4V49.4ZM45.5206 49.4H32.6391V51.4H45.5206V49.4ZM46.5206 48.4C46.5206 48.9523 46.0729 49.4 45.5206 49.4V51.4C47.1774 51.4 48.5206 50.0568 48.5206 48.4H46.5206ZM46.5206 45.6947V48.4H48.5206V45.6947H46.5206ZM47.9606 43.2C47.9606 43.8946 47.5844 44.5025 47.0199 44.8291L48.0213 46.5603C49.1784 45.8909 49.9606 44.6374 49.9606 43.2H47.9606ZM47.0199 41.5709C47.5844 41.8974 47.9606 42.5054 47.9606 43.2H49.9606C49.9606 41.7626 49.1784 40.509 48.0213 39.8397L47.0199 41.5709ZM46.5206 40.32V40.7053H48.5206V40.32H46.5206ZM49.4006 37.44C49.4006 38.4783 48.5589 39.32 47.5206 39.32V41.32C49.6634 41.32 51.4006 39.5828 51.4006 37.44H49.4006ZM47.5237 35.56C48.5605 35.5616 49.4006 36.4027 49.4006 37.44H51.4006C51.4006 35.2992 49.6669 33.5634 47.5269 33.56L47.5237 35.56ZM48.9606 33.56H47.5253V35.56H48.9606V33.56ZM50.8406 31.68C50.8406 32.7183 49.9989 33.56 48.9606 33.56V35.56C51.1035 35.56 52.8406 33.8228 52.8406 31.68H50.8406ZM48.9606 29.8C49.9989 29.8 50.8406 30.6417 50.8406 31.68H52.8406C52.8406 29.5371 51.1035 27.8 48.9606 27.8V29.8ZM47.5206 29.8H48.9606V27.8H47.5206V29.8ZM35.7036 29.8L47.5206 29.8V27.8L35.7036 27.8V29.8ZM33.3868 21.1145C33.9921 24.0749 34.4409 26.5089 34.7098 28.9112L36.6974 28.6887C36.4181 26.1937 35.9543 23.6878 35.3463 20.7139L33.3868 21.1145Z" fill="#323232"/>
<path d="M48.9598 34.5599L41.7598 34.5599" stroke="#323232" stroke-width="2" stroke-linecap="round"/>
<path d="M47.5202 40.3199L43.2002 40.3199" stroke="#323232" stroke-width="2" stroke-linecap="round"/>
<path d="M47.5202 46.08L43.2002 46.08" stroke="#323232" stroke-width="2" stroke-linecap="round"/>
<rect x="24.04" y="27.7999" width="22.16" height="4.88" rx="2.44" transform="rotate(90 24.04 27.7999)" fill="#5B638F" stroke="#323232" stroke-width="2"/>
</g>
<defs>
<clipPath id="clip0">
<rect width="72" height="72" fill="white"/>
</clipPath>
</defs>
</svg>
