<svg width="200" height="200" viewBox="0 0 200 200" fill="none" xmlns="http://www.w3.org/2000/svg">
<path d="M136.672 38.7159H63.3279C61.5606 38.7159 60.1279 40.1486 60.1279 41.9159V158.088C60.1279 159.855 61.5606 161.288 63.3279 161.288H136.672C138.439 161.288 139.872 159.855 139.872 158.088V41.9159C139.872 40.1486 138.439 38.7159 136.672 38.7159Z" stroke="#747474" stroke-width="2" stroke-miterlimit="10"/>
<path d="M76.5718 49.8399C77.873 49.8399 78.9278 48.7851 78.9278 47.4839C78.9278 46.1827 77.873 45.1279 76.5718 45.1279C75.2706 45.1279 74.2158 46.1827 74.2158 47.4839C74.2158 48.7851 75.2706 49.8399 76.5718 49.8399Z" stroke="#747474" stroke-width="2" stroke-miterlimit="10"/>
<path d="M93.5234 47.484H106.475" stroke="#747474" stroke-width="2" stroke-miterlimit="10"/>
<path d="M93.5234 153.372H106.475" stroke="#747474" stroke-width="2" stroke-miterlimit="10"/>
<path d="M116.9 100L112.668 100L112.668 113.148C112.668 114.474 112.142 115.746 111.204 116.684C110.266 117.621 108.994 118.148 107.668 118.148" stroke="#747474" stroke-width="2" stroke-miterlimit="10"/>
<path d="M122.44 94.608C119.462 94.608 117.048 97.0221 117.048 100C117.048 102.978 119.462 105.392 122.44 105.392C125.418 105.392 127.832 102.978 127.832 100C127.832 97.0221 125.418 94.608 122.44 94.608Z" stroke="#747474" stroke-width="2" stroke-miterlimit="10"/>
<path d="M107.632 81.8521L107.668 81.8521C108.994 81.8521 110.266 82.3789 111.204 83.3166C112.141 84.2543 112.668 85.526 112.668 86.8521L112.668 100" stroke="#747474" stroke-width="2" stroke-miterlimit="10"/>
<path d="M95.792 118.148L91.16 118.148L91.16 124.268C91.16 125.608 89.872 126.696 88.28 126.696L84.948 126.696" stroke="#747474" stroke-width="2" stroke-miterlimit="10"/>
<path d="M101.716 112.688C98.7003 112.688 96.2558 115.133 96.2558 118.148C96.2558 121.164 98.7003 123.608 101.716 123.608C104.731 123.608 107.176 121.164 107.176 118.148C107.176 115.133 104.731 112.688 101.716 112.688Z" stroke="#747474" stroke-width="2" stroke-miterlimit="10"/>
<path d="M84.9125 109.072L88.2645 109.072C89.8645 109.072 91.1445 110.228 91.1445 111.648L91.1445 118.148" stroke="#747474" stroke-width="2" stroke-miterlimit="10"/>
<path d="M79.3922 121.304C76.4143 121.304 74.0002 123.718 74.0002 126.696C74.0002 129.674 76.4143 132.088 79.3922 132.088C82.3701 132.088 84.7842 129.674 84.7842 126.696C84.7842 123.718 82.3701 121.304 79.3922 121.304Z" stroke="#747474" stroke-width="2" stroke-miterlimit="10"/>
<path d="M95.792 81.852L91.16 81.852L91.16 87.976C91.16 89.316 89.872 90.4 88.28 90.4L84.948 90.4" stroke="#747474" stroke-width="2" stroke-miterlimit="10"/>
<path d="M101.716 76.3922C98.7003 76.3922 96.2558 78.8367 96.2558 81.8521C96.2558 84.8676 98.7003 87.3121 101.716 87.3121C104.731 87.3121 107.176 84.8676 107.176 81.8521C107.176 78.8367 104.731 76.3922 101.716 76.3922Z" stroke="#747474" stroke-width="2" stroke-miterlimit="10"/>
<path d="M79.3922 104.208C76.4143 104.208 74.0002 106.622 74.0002 109.6C74.0002 112.578 76.4143 114.992 79.3922 114.992C82.3701 114.992 84.7842 112.578 84.7842 109.6C84.7842 106.622 82.3701 104.208 79.3922 104.208Z" stroke="#747474" stroke-width="2" stroke-miterlimit="10"/>
<path d="M84.9125 73.3042L88.2645 73.3042C89.8645 73.3042 91.1445 74.3922 91.1445 75.7322L91.1445 81.8522" stroke="#747474" stroke-width="2" stroke-miterlimit="10"/>
<path d="M79.3922 85.0081C76.4143 85.0081 74.0002 87.4222 74.0002 90.4001C74.0002 93.378 76.4143 95.7921 79.3922 95.7921C82.3701 95.7921 84.7842 93.378 84.7842 90.4001C84.7842 87.4222 82.3701 85.0081 79.3922 85.0081Z" stroke="#747474" stroke-width="2" stroke-miterlimit="10"/>
<path d="M79.3922 67.9119C76.4143 67.9119 74.0002 70.326 74.0002 73.3039C74.0002 76.2818 76.4143 78.6959 79.3922 78.6959C82.3701 78.6959 84.7842 76.2818 84.7842 73.3039C84.7842 70.326 82.3701 67.9119 79.3922 67.9119Z" stroke="#747474" stroke-width="2" stroke-miterlimit="10"/>
</svg>
