<svg width="200" height="200" viewBox="0 0 200 200" fill="none" xmlns="http://www.w3.org/2000/svg">
<path d="M136.672 38.716H63.3279C61.5606 38.716 60.1279 40.1487 60.1279 41.916V158.088C60.1279 159.855 61.5606 161.288 63.3279 161.288H136.672C138.439 161.288 139.872 159.855 139.872 158.088V41.916C139.872 40.1487 138.439 38.716 136.672 38.716Z" fill="#E27101"/>
<path d="M136.672 38.716H63.3279C61.5606 38.716 60.1279 40.1487 60.1279 41.916V158.088C60.1279 159.855 61.5606 161.288 63.3279 161.288H136.672C138.439 161.288 139.872 159.855 139.872 158.088V41.916C139.872 40.1487 138.439 38.716 136.672 38.716Z" fill="url(#paint0_linear)"/>
<path d="M136.672 38.716H63.3279C61.5606 38.716 60.1279 40.1487 60.1279 41.916V158.088C60.1279 159.855 61.5606 161.288 63.3279 161.288H136.672C138.439 161.288 139.872 159.855 139.872 158.088V41.916C139.872 40.1487 138.439 38.716 136.672 38.716Z" stroke="#E27101" stroke-width="2" stroke-miterlimit="10"/>
<path d="M136.672 38.716H63.3279C61.5606 38.716 60.1279 40.1487 60.1279 41.916V158.088C60.1279 159.855 61.5606 161.288 63.3279 161.288H136.672C138.439 161.288 139.872 159.855 139.872 158.088V41.916C139.872 40.1487 138.439 38.716 136.672 38.716Z" stroke="url(#paint1_linear)" stroke-width="2" stroke-miterlimit="10"/>
<path d="M76.5718 49.84C77.873 49.84 78.9278 48.7852 78.9278 47.484C78.9278 46.1828 77.873 45.128 76.5718 45.128C75.2706 45.128 74.2158 46.1828 74.2158 47.484C74.2158 48.7852 75.2706 49.84 76.5718 49.84Z" fill="#D14D02" stroke="#D14D02" stroke-width="2" stroke-miterlimit="10"/>
<path d="M93.5234 47.4841H106.475" stroke="#D14D02" stroke-width="2" stroke-miterlimit="10" stroke-linecap="round"/>
<path d="M93.5234 153.372H106.475" stroke="#D14D02" stroke-width="2" stroke-miterlimit="10" stroke-linecap="round"/>
<path d="M116.9 100H112.668V86.852C112.668 85.5259 112.142 84.2541 111.204 83.3165C110.266 82.3788 108.994 81.852 107.668 81.852" stroke="#FCEEDE" stroke-width="2" stroke-miterlimit="10"/>
<path d="M122.44 105.392C119.462 105.392 117.048 102.978 117.048 100C117.048 97.0222 119.462 94.6081 122.44 94.6081C125.418 94.6081 127.832 97.0222 127.832 100C127.832 102.978 125.418 105.392 122.44 105.392Z" fill="white" stroke="white" stroke-width="2" stroke-miterlimit="10"/>
<path d="M107.632 118.148H107.668C108.994 118.148 110.266 117.621 111.204 116.683C112.141 115.746 112.668 114.474 112.668 113.148V99.9999" stroke="#FCEEDE" stroke-width="2" stroke-miterlimit="10"/>
<path d="M95.792 81.8519H91.16V75.7319C91.16 74.3919 89.872 73.3039 88.28 73.3039H84.948" stroke="#FCEEDE" stroke-width="2" stroke-miterlimit="10"/>
<path d="M101.716 87.312C98.7003 87.312 96.2558 84.8675 96.2558 81.852C96.2558 78.8366 98.7003 76.392 101.716 76.392C104.731 76.392 107.176 78.8366 107.176 81.852C107.176 84.8675 104.731 87.312 101.716 87.312Z" fill="white" stroke="white" stroke-width="2" stroke-miterlimit="10"/>
<path d="M84.9125 90.928H88.2645C89.8645 90.928 91.1445 89.772 91.1445 88.352V81.852" stroke="#FCEEDE" stroke-width="2" stroke-miterlimit="10"/>
<path d="M79.3922 78.6961C76.4143 78.6961 74.0002 76.282 74.0002 73.304C74.0002 70.3261 76.4143 67.912 79.3922 67.912C82.3701 67.912 84.7842 70.3261 84.7842 73.304C84.7842 76.282 82.3701 78.6961 79.3922 78.6961Z" fill="white" stroke="white" stroke-width="2" stroke-miterlimit="10"/>
<path d="M95.792 118.148H91.16V112.024C91.16 110.684 89.872 109.6 88.28 109.6H84.948" stroke="#FCEEDE" stroke-width="2" stroke-miterlimit="10"/>
<path d="M101.716 123.608C98.7003 123.608 96.2558 121.163 96.2558 118.148C96.2558 115.132 98.7003 112.688 101.716 112.688C104.731 112.688 107.176 115.132 107.176 118.148C107.176 121.163 104.731 123.608 101.716 123.608Z" fill="white" stroke="white" stroke-width="2" stroke-miterlimit="10"/>
<path d="M79.3922 95.792C76.4143 95.792 74.0002 93.3779 74.0002 90.4C74.0002 87.4221 76.4143 85.008 79.3922 85.008C82.3701 85.008 84.7842 87.4221 84.7842 90.4C84.7842 93.3779 82.3701 95.792 79.3922 95.792Z" fill="white" stroke="white" stroke-width="2" stroke-miterlimit="10"/>
<path d="M84.9125 126.696H88.2645C89.8645 126.696 91.1445 125.608 91.1445 124.268V118.148" stroke="#FCEEDE" stroke-width="2" stroke-miterlimit="10"/>
<path d="M79.3922 114.992C76.4143 114.992 74.0002 112.578 74.0002 109.6C74.0002 106.622 76.4143 104.208 79.3922 104.208C82.3701 104.208 84.7842 106.622 84.7842 109.6C84.7842 112.578 82.3701 114.992 79.3922 114.992Z" fill="white" stroke="white" stroke-width="2" stroke-miterlimit="10"/>
<path d="M79.3922 132.088C76.4143 132.088 74.0002 129.674 74.0002 126.696C74.0002 123.718 76.4143 121.304 79.3922 121.304C82.3701 121.304 84.7842 123.718 84.7842 126.696C84.7842 129.674 82.3701 132.088 79.3922 132.088Z" fill="white" stroke="white" stroke-width="2" stroke-miterlimit="10"/>
<defs>
<linearGradient id="paint0_linear" x1="60.1279" y1="161.288" x2="139.872" y2="161.288" gradientUnits="userSpaceOnUse">
<stop stop-color="white" stop-opacity="0.25"/>
<stop offset="1" stop-color="white" stop-opacity="0"/>
</linearGradient>
<linearGradient id="paint1_linear" x1="60.1279" y1="161.288" x2="139.872" y2="161.288" gradientUnits="userSpaceOnUse">
<stop stop-color="white" stop-opacity="0.25"/>
<stop offset="1" stop-color="white" stop-opacity="0"/>
</linearGradient>
</defs>
</svg>
