<svg width="200" height="200" viewBox="0 0 200 200" fill="none" xmlns="http://www.w3.org/2000/svg">
<path d="M136.672 38.7159H63.3279C61.5606 38.7159 60.1279 40.1486 60.1279 41.9159V158.088C60.1279 159.855 61.5606 161.288 63.3279 161.288H136.672C138.439 161.288 139.872 159.855 139.872 158.088V41.9159C139.872 40.1486 138.439 38.7159 136.672 38.7159Z" stroke="#747474" stroke-width="2" stroke-miterlimit="10"/>
<path d="M76.5718 49.8399C77.873 49.8399 78.9278 48.7851 78.9278 47.4839C78.9278 46.1827 77.873 45.1279 76.5718 45.1279C75.2706 45.1279 74.2158 46.1827 74.2158 47.4839C74.2158 48.7851 75.2706 49.8399 76.5718 49.8399Z" stroke="#747474" stroke-width="2" stroke-miterlimit="10"/>
<path d="M93.5234 47.484H106.475" stroke="#747474" stroke-width="2" stroke-miterlimit="10"/>
<path d="M93.5234 153.372H106.475" stroke="#747474" stroke-width="2" stroke-miterlimit="10"/>
<path d="M81.6924 99.9999H85.9244V86.8519C85.9244 85.5258 86.4512 84.2541 87.3888 83.3164C88.3265 82.3787 89.5983 81.8519 90.9244 81.8519" stroke="#747474" stroke-width="2" stroke-miterlimit="10"/>
<path d="M76.1518 105.392C79.1297 105.392 81.5438 102.978 81.5438 100C81.5438 97.0221 79.1297 94.608 76.1518 94.608C73.1738 94.608 70.7598 97.0221 70.7598 100C70.7598 102.978 73.1738 105.392 76.1518 105.392Z" stroke="#747474" stroke-width="2" stroke-miterlimit="10"/>
<path d="M90.9598 118.148H90.9238C89.5977 118.148 88.326 117.621 87.3883 116.684C86.4506 115.746 85.9238 114.474 85.9238 113.148V100" stroke="#747474" stroke-width="2" stroke-miterlimit="10"/>
<path d="M102.8 81.852H107.432V75.732C107.432 74.392 108.72 73.304 110.312 73.304H113.644" stroke="#747474" stroke-width="2" stroke-miterlimit="10"/>
<path d="M96.876 87.312C99.8915 87.312 102.336 84.8674 102.336 81.852C102.336 78.8365 99.8915 76.392 96.876 76.392C93.8605 76.392 91.416 78.8365 91.416 81.852C91.416 84.8674 93.8605 87.312 96.876 87.312Z" stroke="#747474" stroke-width="2" stroke-miterlimit="10"/>
<path d="M113.68 90.9279H110.328C108.728 90.9279 107.448 89.7719 107.448 88.3519V81.8519" stroke="#747474" stroke-width="2" stroke-miterlimit="10"/>
<path d="M119.2 78.696C122.178 78.696 124.592 76.2819 124.592 73.304C124.592 70.3261 122.178 67.912 119.2 67.912C116.222 67.912 113.808 70.3261 113.808 73.304C113.808 76.2819 116.222 78.696 119.2 78.696Z" stroke="#747474" stroke-width="2" stroke-miterlimit="10"/>
<path d="M102.8 118.148H107.432V112.024C107.432 110.684 108.72 109.6 110.312 109.6H113.644" stroke="#747474" stroke-width="2" stroke-miterlimit="10"/>
<path d="M96.876 123.608C99.8915 123.608 102.336 121.163 102.336 118.148C102.336 115.132 99.8915 112.688 96.876 112.688C93.8605 112.688 91.416 115.132 91.416 118.148C91.416 121.163 93.8605 123.608 96.876 123.608Z" stroke="#747474" stroke-width="2" stroke-miterlimit="10"/>
<path d="M119.2 95.7919C122.178 95.7919 124.592 93.3778 124.592 90.3999C124.592 87.422 122.178 85.0079 119.2 85.0079C116.222 85.0079 113.808 87.422 113.808 90.3999C113.808 93.3778 116.222 95.7919 119.2 95.7919Z" stroke="#747474" stroke-width="2" stroke-miterlimit="10"/>
<path d="M113.68 126.696H110.328C108.728 126.696 107.448 125.608 107.448 124.268V118.148" stroke="#747474" stroke-width="2" stroke-miterlimit="10"/>
<path d="M119.2 114.992C122.178 114.992 124.592 112.578 124.592 109.6C124.592 106.622 122.178 104.208 119.2 104.208C116.222 104.208 113.808 106.622 113.808 109.6C113.808 112.578 116.222 114.992 119.2 114.992Z" stroke="#747474" stroke-width="2" stroke-miterlimit="10"/>
<path d="M119.2 132.088C122.178 132.088 124.592 129.674 124.592 126.696C124.592 123.718 122.178 121.304 119.2 121.304C116.222 121.304 113.808 123.718 113.808 126.696C113.808 129.674 116.222 132.088 119.2 132.088Z" stroke="#747474" stroke-width="2" stroke-miterlimit="10"/>
</svg>
