<svg width="200" height="200" viewBox="0 0 200 200" fill="none" xmlns="http://www.w3.org/2000/svg">
<path d="M100.423 141C137.489 141 167.537 120.304 167.537 94.7732C167.537 69.2428 137.489 48.5464 100.423 48.5464C63.3573 48.5464 33.3096 69.2428 33.3096 94.7732C33.3096 120.304 63.3573 141 100.423 141Z" stroke="#747474" stroke-width="2" stroke-miterlimit="10"/>
<path d="M100.423 141C118.818 141 133.731 120.304 133.731 94.7732C133.731 69.2428 118.818 48.5464 100.423 48.5464C82.0283 48.5464 67.1162 69.2428 67.1162 94.7732C67.1162 120.304 82.0283 141 100.423 141Z" stroke="#747474" stroke-width="2" stroke-miterlimit="10"/>
<path d="M53.0771 62.0184C58.5691 66.4002 64.7014 69.9126 71.2597 72.4327C89.6409 79.6 111.216 79.6 129.592 72.4327C136.148 69.9106 142.278 66.3984 147.77 62.0184" stroke="#747474" stroke-width="2" stroke-miterlimit="10"/>
<path d="M147.77 127.533C142.278 123.153 136.148 119.641 129.592 117.119C111.216 109.951 89.6409 109.951 71.2597 117.119C64.7014 119.639 58.5691 123.151 53.0771 127.533" stroke="#747474" stroke-width="2" stroke-miterlimit="10"/>
</svg>
