<svg width="200" height="200" viewBox="0 0 200 200" fill="none" xmlns="http://www.w3.org/2000/svg">
<path d="M90.2894 67.2485H17V132.751H90.2894" fill="#399D3A"/>
<path d="M90.2894 67.2485H17V132.751H90.2894" fill="url(#paint0_linear)"/>
<path d="M90.2894 67.2485H17V132.751H90.2894" stroke="#399D3A" stroke-width="2" stroke-miterlimit="10"/>
<path d="M90.2894 67.2485H17V132.751H90.2894" stroke="url(#paint1_linear)" stroke-width="2" stroke-miterlimit="10"/>
<path d="M99.9775 162V38" stroke="#747474" stroke-width="2" stroke-miterlimit="10"/>
<path d="M119.87 84.279C122.092 84.279 123.893 82.4777 123.893 80.2557C123.893 78.0337 122.092 76.2324 119.87 76.2324C117.648 76.2324 115.847 78.0337 115.847 80.2557C115.847 82.4777 117.648 84.279 119.87 84.279Z" fill="#308B31"/>
<path d="M130.505 73.5011C132.727 73.5011 134.528 71.6998 134.528 69.4778C134.528 67.2558 132.727 65.4545 130.505 65.4545C128.283 65.4545 126.481 67.2558 126.481 69.4778C126.481 71.6998 128.283 73.5011 130.505 73.5011Z" fill="#C2E0C1"/>
<path d="M131.823 84.8444C134.045 84.8444 135.846 83.0431 135.846 80.8211C135.846 78.5991 134.045 76.7978 131.823 76.7978C129.601 76.7978 127.8 78.5991 127.8 80.8211C127.8 83.0431 129.601 84.8444 131.823 84.8444Z" fill="#73B973"/>
<path d="M143.781 79.1614C146.003 79.1614 147.804 77.3601 147.804 75.1381C147.804 72.9161 146.003 71.1148 143.781 71.1148C141.559 71.1148 139.758 72.9161 139.758 75.1381C139.758 77.3601 141.559 79.1614 143.781 79.1614Z" fill="#308B31"/>
<path d="M142.579 92.1641C144.801 92.1641 146.602 90.3628 146.602 88.1408C146.602 85.9188 144.801 84.1176 142.579 84.1176C140.357 84.1176 138.556 85.9188 138.556 88.1408C138.556 90.3628 140.357 92.1641 142.579 92.1641Z" fill="#308B31"/>
<path d="M155.895 71.1148C158.117 71.1148 159.919 69.3135 159.919 67.0915C159.919 64.8695 158.117 63.0682 155.895 63.0682C153.673 63.0682 151.872 64.8695 151.872 67.0915C151.872 69.3135 153.673 71.1148 155.895 71.1148Z" fill="#73B973"/>
<path d="M154.487 87.2124C156.709 87.2124 158.51 85.4111 158.51 83.1891C158.51 80.9671 156.709 79.1658 154.487 79.1658C152.265 79.1658 150.464 80.9671 150.464 83.1891C150.464 85.4111 152.265 87.2124 154.487 87.2124Z" fill="#C2E0C1"/>
<path d="M168.23 79.1614C170.452 79.1614 172.254 77.3601 172.254 75.1381C172.254 72.9161 170.452 71.1148 168.23 71.1148C166.008 71.1148 164.207 72.9161 164.207 75.1381C164.207 77.3601 166.008 79.1614 168.23 79.1614Z" fill="#308B31"/>
<path d="M110.384 100H183.673" stroke="#747474" stroke-width="2" stroke-miterlimit="10"/>
<path d="M115.676 111.074C116.529 110.37 117.601 109.985 118.708 109.985C119.814 109.985 120.886 110.37 121.74 111.074L126.907 115.559C127.762 116.27 128.839 116.658 129.95 116.658C131.062 116.658 132.138 116.27 132.993 115.559L138.057 111.11C138.913 110.397 139.991 110.006 141.105 110.006C142.219 110.006 143.297 110.397 144.153 111.11L149.181 115.524C150.041 116.241 151.126 116.632 152.246 116.628C153.366 116.624 154.448 116.225 155.303 115.501L160.188 111.133C161.039 110.413 162.115 110.015 163.23 110.007C164.344 109.999 165.426 110.381 166.288 111.088L171.558 115.636C172.405 116.332 173.467 116.714 174.563 116.718C175.66 116.722 176.725 116.348 177.577 115.658" stroke="#50CFE0" stroke-width="2"/>
<path d="M115.676 119.089C116.529 118.384 117.601 117.998 118.708 117.998C119.815 117.998 120.887 118.384 121.74 119.089L126.907 123.575C127.762 124.285 128.839 124.673 129.95 124.673C131.062 124.673 132.138 124.285 132.993 123.575L138.057 119.13C138.912 118.415 139.991 118.023 141.105 118.023C142.219 118.023 143.298 118.415 144.153 119.13L149.181 123.539C150.04 124.257 151.126 124.648 152.246 124.644C153.366 124.64 154.449 124.241 155.303 123.516L160.188 119.152C161.039 118.432 162.115 118.033 163.23 118.025C164.344 118.017 165.426 118.4 166.288 119.107L171.558 123.651C172.405 124.347 173.467 124.729 174.563 124.733C175.66 124.737 176.725 124.363 177.577 123.673" stroke="#F7D136" stroke-width="2"/>
<path d="M115.676 127.1C116.529 126.396 117.601 126.01 118.708 126.01C119.814 126.01 120.886 126.396 121.74 127.1L126.907 131.585C127.762 132.296 128.838 132.686 129.95 132.686C131.062 132.686 132.139 132.296 132.993 131.585L138.057 127.14C138.913 126.427 139.991 126.036 141.105 126.036C142.219 126.036 143.297 126.427 144.153 127.14L149.181 131.554C150.041 132.271 151.126 132.662 152.246 132.658C153.366 132.654 154.448 132.255 155.303 131.531L160.188 127.163C161.039 126.444 162.115 126.045 163.23 126.037C164.344 126.029 165.426 126.411 166.288 127.118L171.558 131.666C172.405 132.362 173.467 132.744 174.563 132.749C175.66 132.753 176.725 132.378 177.577 131.688" stroke="#EB9A47" stroke-width="2"/>
<defs>
<linearGradient id="paint0_linear" x1="17" y1="132.751" x2="90.2894" y2="132.751" gradientUnits="userSpaceOnUse">
<stop stop-color="white" stop-opacity="0.5"/>
<stop offset="1" stop-color="white" stop-opacity="0"/>
</linearGradient>
<linearGradient id="paint1_linear" x1="17" y1="132.751" x2="90.2894" y2="132.751" gradientUnits="userSpaceOnUse">
<stop stop-color="white" stop-opacity="0.5"/>
<stop offset="1" stop-color="white" stop-opacity="0"/>
</linearGradient>
</defs>
</svg>
