<svg width="72" height="72" viewBox="0 0 72 72" fill="none" xmlns="http://www.w3.org/2000/svg">
<g clip-path="url(#clip0)">
<mask id="mask0" mask-type="alpha" maskUnits="userSpaceOnUse" x="8" y="15" width="56" height="42">
<path d="M62.3596 36C62.3596 41.4005 59.4996 46.3592 54.7386 50C49.9768 53.6414 43.3549 55.9223 35.9996 55.9223C28.6444 55.9223 22.0225 53.6414 17.2607 50C12.4997 46.3592 9.63965 41.4005 9.63965 36C9.63965 30.5995 12.4997 25.6407 17.2607 22C22.0225 18.3586 28.6444 16.0776 35.9996 16.0776C43.3549 16.0776 49.9768 18.3586 54.7386 22C59.4996 25.6407 62.3596 30.5995 62.3596 36Z" fill="white" stroke="#323232" stroke-width="2"/>
</mask>
<g mask="url(#mask0)">
<path d="M62.3596 36C62.3596 41.4005 59.4996 46.3592 54.7386 50C49.9768 53.6414 43.3549 55.9223 35.9996 55.9223C28.6444 55.9223 22.0225 53.6414 17.2607 50C12.4997 46.3592 9.63965 41.4005 9.63965 36C9.63965 30.5995 12.4997 25.6407 17.2607 22C22.0225 18.3586 28.6444 16.0776 35.9996 16.0776C43.3549 16.0776 49.9768 18.3586 54.7386 22C59.4996 25.6407 62.3596 30.5995 62.3596 36Z" fill="white" stroke="#323232" stroke-width="2"/>
<path d="M49.4841 35.9999C49.4841 42.5163 47.8972 48.3673 45.3841 52.5558C42.859 56.7643 39.5099 59.1411 35.9994 59.1411C32.4888 59.1411 29.1397 56.7643 26.6146 52.5558C24.1015 48.3673 22.5146 42.5163 22.5146 35.9999C22.5146 29.4836 24.1015 23.6326 26.6146 19.444C29.1397 15.2356 32.4888 12.8588 35.9994 12.8588C39.5099 12.8588 42.859 15.2356 45.3841 19.444C47.8972 23.6326 49.4841 29.4836 49.4841 35.9999Z" stroke="#323232" stroke-width="2"/>
<path d="M62.3596 19.9058C62.3596 20.5229 61.9287 21.32 60.6387 22.2171C59.378 23.0937 57.4886 23.9234 55.0639 24.6366C50.2276 26.059 43.4871 26.9529 35.9996 26.9529C28.5122 26.9529 21.7717 26.059 16.9354 24.6366C14.5107 23.9234 12.6213 23.0937 11.3606 22.2171C10.0706 21.32 9.63965 20.5229 9.63965 19.9058C9.63965 19.2887 10.0706 18.4916 11.3606 17.5946C12.6213 16.718 14.5107 15.8882 16.9354 15.1751C21.7717 13.7526 28.5122 12.8588 35.9996 12.8588C43.4871 12.8588 50.2276 13.7526 55.0639 15.1751C57.4886 15.8882 59.378 16.718 60.6387 17.5946C61.9287 18.4916 62.3596 19.2887 62.3596 19.9058Z" stroke="#323232" stroke-width="2"/>
<path d="M62.3596 52.0942C62.3596 52.7113 61.9287 53.5084 60.6387 54.4054C59.378 55.282 57.4886 56.1118 55.0639 56.8249C50.2276 58.2474 43.4871 59.1412 35.9996 59.1412C28.5122 59.1412 21.7717 58.2474 16.9354 56.8249C14.5107 56.1118 12.6213 55.282 11.3606 54.4054C10.0706 53.5084 9.63965 52.7113 9.63965 52.0942C9.63965 51.4771 10.0706 50.68 11.3606 49.7829C12.6213 48.9063 14.5107 48.0766 16.9354 47.3634C21.7717 45.941 28.5122 45.0471 35.9996 45.0471C43.4871 45.0471 50.2276 45.941 55.0639 47.3634C57.4886 48.0766 59.378 48.9063 60.6387 49.7829C61.9287 50.68 62.3596 51.4771 62.3596 52.0942Z" stroke="#323232" stroke-width="2"/>
<path d="M33.5056 31.8972L27.9519 36.0002L33.5054 40.103" stroke="#323232" stroke-width="2" stroke-linecap="round" stroke-linejoin="round"/>
<path d="M38.4925 31.8972L44.0461 36.0002L38.4927 40.103" stroke="#323232" stroke-width="2" stroke-linecap="round" stroke-linejoin="round"/>
</g>
</g>
<defs>
<clipPath id="clip0">
<rect width="72" height="72" fill="white"/>
</clipPath>
</defs>
</svg>
