<svg width="200" height="200" viewBox="0 0 200 200" fill="none" xmlns="http://www.w3.org/2000/svg">
<path d="M100.423 141C137.489 141 167.537 120.304 167.537 94.7732C167.537 69.2428 137.489 48.5464 100.423 48.5464C63.3573 48.5464 33.3096 69.2428 33.3096 94.7732C33.3096 120.304 63.3573 141 100.423 141Z" fill="#FAFAFA" stroke="white" stroke-width="2" stroke-miterlimit="10"/>
<path d="M100.423 141C118.818 141 133.731 120.304 133.731 94.7732C133.731 69.2428 118.818 48.5464 100.423 48.5464C82.0283 48.5464 67.1162 69.2428 67.1162 94.7732C67.1162 120.304 82.0283 141 100.423 141Z" fill="#00A2B7"/>
<path d="M100.423 141C118.818 141 133.731 120.304 133.731 94.7732C133.731 69.2428 118.818 48.5464 100.423 48.5464C82.0283 48.5464 67.1162 69.2428 67.1162 94.7732C67.1162 120.304 82.0283 141 100.423 141Z" fill="url(#paint0_linear)"/>
<path d="M100.423 141C118.818 141 133.731 120.304 133.731 94.7732C133.731 69.2428 118.818 48.5464 100.423 48.5464C82.0283 48.5464 67.1162 69.2428 67.1162 94.7732C67.1162 120.304 82.0283 141 100.423 141Z" stroke="#00A2B7" stroke-width="2" stroke-miterlimit="10"/>
<path d="M100.423 141C118.818 141 133.731 120.304 133.731 94.7732C133.731 69.2428 118.818 48.5464 100.423 48.5464C82.0283 48.5464 67.1162 69.2428 67.1162 94.7732C67.1162 120.304 82.0283 141 100.423 141Z" stroke="url(#paint1_linear)" stroke-width="2" stroke-miterlimit="10"/>
<path d="M53.0771 62.0184C58.5691 66.4002 64.7014 69.9126 71.2597 72.4327C89.6409 79.6 111.216 79.6 129.592 72.4327C136.148 69.9106 142.278 66.3984 147.77 62.0184" stroke="#FAFAFA" stroke-width="2" stroke-miterlimit="10"/>
<path d="M147.77 127.533C142.278 123.153 136.148 119.641 129.592 117.119C111.216 109.951 89.6409 109.951 71.2597 117.119C64.7014 119.639 58.5691 123.151 53.0771 127.533" stroke="#FAFAFA" stroke-width="2" stroke-miterlimit="10"/>
<path d="M35.7715 54.4486V54.4438L38.4853 38.8539" stroke="#FAFAFA" stroke-width="2" stroke-miterlimit="10"/>
<path d="M44.9741 31.4057L41.8096 49.5931" stroke="#FAFAFA" stroke-width="2" stroke-miterlimit="10"/>
<path d="M47.707 45.5129L51.109 25.9396V25.9348" stroke="#FAFAFA" stroke-width="2" stroke-miterlimit="10"/>
<path d="M53.498 42.0577L57.0405 21.675V21.6702" stroke="#FAFAFA" stroke-width="2" stroke-miterlimit="10"/>
<path d="M62.8221 18.2726L59.1973 39.1301" stroke="#FAFAFA" stroke-width="2" stroke-miterlimit="10"/>
<path d="M68.4878 15.5541L64.8145 36.6782" stroke="#FAFAFA" stroke-width="2" stroke-miterlimit="10"/>
<path d="M74.0511 13.3976L70.3535 34.6574" stroke="#FAFAFA" stroke-width="2" stroke-miterlimit="10"/>
<path d="M79.5315 11.7254L75.8242 33.024" stroke="#FAFAFA" stroke-width="2" stroke-miterlimit="10"/>
<path d="M84.9349 10.4852L81.2373 31.7547" stroke="#FAFAFA" stroke-width="2" stroke-miterlimit="10"/>
<path d="M90.2758 9.63202L86.5928 30.8143" stroke="#FAFAFA" stroke-width="2" stroke-miterlimit="10"/>
<path d="M95.5484 9.14728L91.8896 30.1938" stroke="#FAFAFA" stroke-width="2" stroke-miterlimit="10"/>
<path d="M100.763 9.00696L97.1328 29.8742" stroke="#FAFAFA" stroke-width="2" stroke-miterlimit="10"/>
<path d="M105.919 9.19147L102.328 29.8358" stroke="#FAFAFA" stroke-width="2" stroke-miterlimit="10"/>
<path d="M111.022 9.69513L107.479 30.0681" stroke="#FAFAFA" stroke-width="2" stroke-miterlimit="10"/>
<path d="M116.066 10.519L112.582 30.5624" stroke="#FAFAFA" stroke-width="2" stroke-miterlimit="10"/>
<path d="M121.058 11.6625L117.642 31.3231" stroke="#FAFAFA" stroke-width="2" stroke-miterlimit="10"/>
<path d="M125.991 13.1312L122.647 32.3556" stroke="#FAFAFA" stroke-width="2" stroke-miterlimit="10"/>
<path d="M130.871 14.9387L127.609 33.664" stroke="#FAFAFA" stroke-width="2" stroke-miterlimit="10"/>
<path d="M135.683 17.0904L132.528 35.239" stroke="#FAFAFA" stroke-width="2" stroke-miterlimit="10"/>
<path d="M140.437 19.6199L137.394 37.1046" stroke="#FAFAFA" stroke-width="2" stroke-miterlimit="10"/>
<path d="M145.114 22.5421L142.211 39.2466" stroke="#FAFAFA" stroke-width="2" stroke-miterlimit="10"/>
<path d="M146.975 41.6843L149.717 25.9297V25.9249" stroke="#FAFAFA" stroke-width="2" stroke-miterlimit="10"/>
<path d="M154.229 29.8261L151.689 44.4322" stroke="#FAFAFA" stroke-width="2" stroke-miterlimit="10"/>
<path d="M158.634 34.323L156.347 47.4995" stroke="#FAFAFA" stroke-width="2" stroke-miterlimit="10"/>
<path d="M162.909 39.6003L160.941 50.9063" stroke="#FAFAFA" stroke-width="2" stroke-miterlimit="10"/>
<path d="M166.999 45.8954L165.473 54.6814" stroke="#FAFAFA" stroke-width="2" stroke-miterlimit="10"/>
<path d="M27 63.1913C34.3418 31.8855 64.7995 9.26401 99.7979 9.00232C135.247 8.73578 166.407 31.4736 173.846 63.1913C170.725 59.4501 146.18 31.0326 103.2 29.855C56.8713 28.5902 29.5927 60.0849 27 63.1913Z" fill="#00A2B7"/>
<path d="M27 63.1913C34.3418 31.8855 64.7995 9.26401 99.7979 9.00232C135.247 8.73578 166.407 31.4736 173.846 63.1913C170.725 59.4501 146.18 31.0326 103.2 29.855C56.8713 28.5902 29.5927 60.0849 27 63.1913Z" fill="url(#paint2_linear)"/>
<path d="M27 63.1913C34.3418 31.8855 64.7995 9.26401 99.7979 9.00232C135.247 8.73578 166.407 31.4736 173.846 63.1913C170.725 59.4501 146.18 31.0326 103.2 29.855C56.8713 28.5902 29.5927 60.0849 27 63.1913Z" stroke="#00A2B7" stroke-width="2" stroke-miterlimit="10"/>
<path d="M27 63.1913C34.3418 31.8855 64.7995 9.26401 99.7979 9.00232C135.247 8.73578 166.407 31.4736 173.846 63.1913C170.725 59.4501 146.18 31.0326 103.2 29.855C56.8713 28.5902 29.5927 60.0849 27 63.1913Z" stroke="url(#paint3_linear)" stroke-width="2" stroke-miterlimit="10"/>
<defs>
<linearGradient id="paint0_linear" x1="67.1162" y1="141" x2="133.731" y2="141" gradientUnits="userSpaceOnUse">
<stop stop-color="white" stop-opacity="0.5"/>
<stop offset="1" stop-color="white" stop-opacity="0"/>
</linearGradient>
<linearGradient id="paint1_linear" x1="67.1162" y1="141" x2="133.731" y2="141" gradientUnits="userSpaceOnUse">
<stop stop-color="white" stop-opacity="0.5"/>
<stop offset="1" stop-color="white" stop-opacity="0"/>
</linearGradient>
<linearGradient id="paint2_linear" x1="27" y1="63.1913" x2="173.846" y2="63.1913" gradientUnits="userSpaceOnUse">
<stop stop-color="white" stop-opacity="0.5"/>
<stop offset="1" stop-color="white" stop-opacity="0"/>
</linearGradient>
<linearGradient id="paint3_linear" x1="27" y1="63.1913" x2="173.846" y2="63.1913" gradientUnits="userSpaceOnUse">
<stop stop-color="white" stop-opacity="0.5"/>
<stop offset="1" stop-color="white" stop-opacity="0"/>
</linearGradient>
</defs>
</svg>
