<?xml version="1.0" standalone="no"?>
<!DOCTYPE svg PUBLIC "-//W3C//DTD SVG 20010904//EN"
 "http://www.w3.org/TR/2001/REC-SVG-20010904/DTD/svg10.dtd">
<svg version="1.0" xmlns="http://www.w3.org/2000/svg"
 width="1600.000000pt" height="1600.000000pt" viewBox="0 0 1600.000000 1600.000000"
 preserveAspectRatio="xMidYMid meet">
<metadata>
Created by potrace 1.11, written by Peter Selinger 2001-2013
</metadata>
<g transform="translate(0.000000,1600.000000) scale(0.100000,-0.100000)"
fill="#000000" stroke="none">
<path d="M7888 11985 c-111 -28 -208 -91 -271 -175 -23 -31 -316 -531 -652
-1112 l-609 -1056 -951 -553 c-1383 -805 -1254 -725 -1318 -822 -141 -215 -99
-500 96 -647 26 -20 529 -313 1117 -651 l1069 -614 563 -975 c686 -1189 682
-1183 719 -1225 40 -45 121 -97 191 -123 191 -71 419 -7 538 150 19 26 311
528 649 1116 l615 1070 1010 583 c1161 669 1173 677 1215 725 87 98 124 195
125 324 1 174 -71 314 -207 402 -28 18 -523 305 -1100 638 l-1049 605 -618
1064 c-339 585 -635 1087 -657 1115 -104 135 -307 204 -475 161z m1407 -2690
l1300 -1293 -60 -62 c-33 -34 -617 -616 -1298 -1293 l-1238 -1231 -1290 1290
c-709 709 -1288 1292 -1287 1296 5 12 2560 2588 2567 2588 3 -1 591 -583 1306
-1295z"/>
<path d="M7220 8775 l-775 -775 778 -778 777 -777 777 777 778 778 -775 775
c-426 426 -777 775 -780 775 -3 0 -354 -349 -780 -775z"/>
</g>
</svg>
