<svg width="50" height="50" viewBox="0 0 50 50" fill="none" xmlns="http://www.w3.org/2000/svg">
<g id="heptagon-solid">
<path id="heptagon-solid_2" d="M24.1299 5.53532C24.5129 4.85932 25.4869 4.85932 25.8699 5.53531L30.1249 13.0442C30.3305 13.4071 30.7399 13.6043 31.1519 13.5388L39.6755 12.1837C40.4428 12.0617 41.0501 12.8232 40.7604 13.5441L37.5426 21.5525C37.3871 21.9396 37.4882 22.3826 37.7963 22.6638L44.1701 28.483C44.7439 29.0068 44.5272 29.9564 43.7829 30.1794L35.5155 32.6568C35.1158 32.7765 34.8325 33.1317 34.8047 33.548L34.2291 42.1594C34.1773 42.9347 33.2998 43.3573 32.6614 42.9144L25.5699 37.9953C25.2271 37.7575 24.7727 37.7575 24.4299 37.9953L17.3384 42.9144C16.7 43.3573 15.8225 42.9347 15.7707 42.1594L15.1951 33.548C15.1673 33.1317 14.884 32.7765 14.4844 32.6568L6.21686 30.1794C5.47258 29.9564 5.25585 29.0068 5.82966 28.483L12.2035 22.6638C12.5116 22.3826 12.6127 21.9396 12.4572 21.5525L9.23936 13.5441C8.94967 12.8232 9.55692 12.0617 10.3243 12.1837L18.8479 13.5388C19.2599 13.6043 19.6693 13.4071 19.8749 13.0442L24.1299 5.53532Z" fill="#323232"/>
</g>
</svg>
