<svg width="50" height="50" viewBox="0 0 50 50" fill="none" xmlns="http://www.w3.org/2000/svg">
<g id="hexagon-solid">
<g id="hexagon-solid_2">
<path id="Vector" d="M14.7096 8.197C14.8888 7.87795 15.2278 7.68219 15.5937 7.6866L25.0002 7.79995L34.4067 7.6866C34.7726 7.68219 35.1116 7.87795 35.2907 8.197L39.8958 16.4L44.6973 24.4896C44.884 24.8042 44.884 25.1958 44.6973 25.5104L39.8958 33.6L35.2907 41.803C35.1116 42.122 34.7726 42.3178 34.4067 42.3134L25.0002 42.2L15.5937 42.3134C15.2278 42.3178 14.8888 42.122 14.7096 41.803L10.1046 33.6L5.30315 25.5104C5.1164 25.1958 5.1164 24.8042 5.30315 24.4896L10.1046 16.4L14.7096 8.197Z" fill="#323232"/>
</g>
</g>
</svg>
