<?xml version="1.0" encoding="UTF-8"?>
<svg width="4020px" height="400px" viewBox="0 0 4020 400" version="1.1" xmlns="http://www.w3.org/2000/svg" xmlns:xlink="http://www.w3.org/1999/xlink">
    <title>Artboard</title>
    <g id="Artboard" stroke="none" stroke-width="1" fill="none" fill-rule="evenodd">
        <g id="Group" transform="translate(12.000000, 6.000000)" fill-rule="nonzero">
            <path d="M1945.42237,311.41539 C1908.05778,311.41539 1879.17252,301.573737 1858.7657,281.890136 C1838.35889,262.206535 1827.58081,232.537902 1826.43113,192.883347 C1826.14371,184.262792 1826,172.050522 1826,156.246171 C1826,140.441819 1826.14371,128.373223 1826.43113,120.040019 C1827.58081,80.9601685 1838.71816,51.3633726 1859.84352,31.2487435 C1880.96889,11.1341145 1909.49488,1.07695084 1945.42237,1.07695084 C1981.34986,1.07695084 2009.804,11.1341145 2030.78565,31.2487435 C2051.76731,51.3633726 2062.83281,80.9601685 2063.98249,120.040019 C2064.55733,136.706426 2064.84474,148.775023 2064.84474,156.246171 C2064.84474,163.429967 2064.55733,175.642237 2063.98249,192.883347 C2062.83281,232.537902 2052.12658,262.206535 2031.86347,281.890136 C2011.60037,301.573737 1982.78696,311.41539 1945.42237,311.41539 Z M1945.42237,275.640265 C1968.41596,275.640265 1986.81056,268.672087 2000.60672,254.735522 C2014.40287,240.798958 2021.87568,219.463404 2023.02536,190.728219 C2023.6002,173.487109 2023.88761,161.993207 2023.88761,156.246171 C2023.88761,149.92443 2023.6002,138.430529 2023.02536,121.764122 C2021.87568,93.0289373 2014.40287,71.6215461 2000.60672,57.5413058 C1986.81056,43.4610654 1968.41596,36.4210509 1945.42237,36.4210509 C1922.42878,36.4210509 1903.96233,43.4610654 1890.02246,57.5413058 C1876.0826,71.6215461 1868.68165,93.0289373 1867.81939,121.764122 C1867.53197,130.097325 1867.38826,141.591226 1867.38826,156.246171 C1867.38826,170.613763 1867.53197,182.107664 1867.81939,190.728219 C1868.68165,219.463404 1876.01074,240.798958 1889.8069,254.735522 C1903.60305,268.672087 1922.14136,275.640265 1945.42237,275.640265 Z M2133.39404,389 C2130.51985,389 2128.14867,388.137957 2126.28044,386.413846 C2124.41221,384.689735 2123.47811,382.247281 2123.47811,379.086411 L2123.47811,88.8962198 C2123.47811,85.7353495 2124.41221,83.2928955 2126.28044,81.5687844 C2128.14867,79.8446734 2130.51985,78.9826308 2133.39404,78.9826308 L2151.50141,78.9826308 C2154.66303,78.9826308 2157.10606,79.8446734 2158.83058,81.5687844 C2160.5551,83.2928955 2161.41734,85.7353495 2161.41734,88.8962198 L2161.41734,111.850533 C2178.0877,89.7244407 2201.79948,78.6615607 2232.55341,78.6615607 C2262.7325,78.6615607 2285.36648,88.2158662 2300.45603,107.324764 C2315.54557,126.433661 2323.52135,150.786365 2324.38361,180.383605 C2324.67103,183.544475 2324.81474,188.429383 2324.81474,195.038475 C2324.81474,201.647568 2324.67103,206.532476 2324.38361,209.693346 C2323.52135,239.003234 2315.54557,263.284101 2300.45603,282.536674 C2285.36648,301.789248 2262.7325,311.41539 2232.55341,311.41539 C2201.79948,311.41539 2178.51882,300.496184 2162.71073,278.657444 L2162.71073,379.086411 C2162.71073,381.959929 2161.77663,384.330547 2159.9084,386.198334 C2158.04017,388.066121 2155.66899,389 2152.79479,389 L2133.39404,389 Z M2224.36199,277.795393 C2245.05622,277.795393 2260.14554,271.330073 2269.6304,258.39924 C2279.11525,245.468407 2284.28873,228.514903 2285.15099,207.538218 C2285.43841,204.6647 2285.58212,200.49816 2285.58212,195.038475 C2285.58212,139.866921 2265.17561,112.281558 2224.36199,112.281558 C2204.24259,112.281558 2189.08142,118.962388 2178.87802,132.324249 C2168.67461,145.68611 2163.28557,161.418387 2162.71073,179.521553 C2162.42331,182.682424 2162.2796,188.285701 2162.2796,196.331552 C2162.2796,204.377404 2162.42331,209.980681 2162.71073,213.141551 C2163.28557,230.670014 2168.81832,245.827596 2179.30914,258.614753 C2189.79997,271.40191 2204.81743,277.795393 2224.36199,277.795393 Z M2467.94913,311.41539 C2438.6323,311.41539 2415.20793,302.292106 2397.67532,284.045264 C2380.14271,265.798422 2370.51428,240.871023 2368.78976,209.262321 L2368.35864,194.60745 L2368.78976,180.383605 C2370.51428,149.349606 2380.14271,124.637718 2397.67532,106.2472 C2415.20793,87.8566817 2438.6323,78.6615607 2467.94913,78.6615607 C2499.56532,78.6615607 2524.0675,88.7187243 2541.4564,108.833353 C2558.84531,128.947982 2567.53963,156.245998 2567.53963,190.728219 L2567.53963,198.48668 C2567.53963,201.360199 2566.60553,203.730816 2564.7373,205.598603 C2562.86907,207.46639 2560.49789,208.400269 2557.62369,208.400269 L2408.02238,208.400269 L2408.02238,212.2795 C2408.88464,230.95737 2414.63296,246.905158 2425.26749,260.123343 C2435.90203,273.341527 2449.98539,279.950521 2467.51801,279.950521 C2481.02674,279.950521 2492.02039,277.292556 2500.49927,271.976547 C2508.97816,266.660538 2515.37316,261.129098 2519.68446,255.382061 C2522.27124,251.933839 2524.28314,249.850569 2525.72024,249.132189 C2527.15734,248.41381 2529.60038,248.054625 2533.04941,248.054625 L2552.01903,248.054625 C2554.60581,248.054625 2556.83328,248.772994 2558.70151,250.209754 C2560.56974,251.646513 2561.50384,253.514272 2561.50384,255.813086 C2561.50384,262.134827 2557.62373,269.749537 2549.86339,278.657444 C2542.10306,287.565351 2531.10941,295.251897 2516.88213,301.717314 C2502.65484,308.18273 2486.34401,311.41539 2467.94913,311.41539 Z M2528.30701,179.090528 L2528.30701,177.797451 C2528.30701,157.682822 2522.84611,141.304013 2511.92416,128.660531 C2501.0022,116.01705 2486.34401,109.695405 2467.94913,109.695405 C2449.26684,109.695405 2434.60865,116.01705 2423.97411,128.660531 C2413.33957,141.304013 2408.02238,157.682822 2408.02238,177.797451 L2408.02238,179.090528 L2528.30701,179.090528 Z M2626.06234,311.09432 C2623.18814,311.09432 2620.81696,310.160441 2618.94873,308.292654 C2617.0805,306.424867 2616.1464,304.054249 2616.1464,301.180731 L2616.1464,88.8962198 C2616.1464,86.0227014 2617.0805,83.6520842 2618.94873,81.7842972 C2620.81696,79.9165102 2623.18814,78.9826308 2626.06234,78.9826308 L2644.60083,78.9826308 C2647.76245,78.9826308 2650.20548,79.8446734 2651.93,81.5687844 C2653.65452,83.2928955 2654.51676,85.7353495 2654.51676,88.8962198 L2654.51676,111.850533 C2663.13936,101.218514 2673.12705,93.0291097 2684.48014,87.2820729 C2695.83322,81.535036 2709.98844,78.6615607 2726.94622,78.6615607 C2754.53853,78.6615607 2775.95099,87.4974973 2791.18424,105.169636 C2806.4175,122.841774 2814.03401,146.188761 2814.03401,175.211297 L2814.03401,301.180731 C2814.03401,304.054249 2813.09991,306.424867 2811.23168,308.292654 C2809.36345,310.160441 2806.99227,311.09432 2804.11807,311.09432 L2784.2862,311.09432 C2781.412,311.09432 2779.04082,310.160441 2777.17259,308.292654 C2775.30436,306.424867 2774.37026,304.054249 2774.37026,301.180731 L2774.37026,177.797451 C2774.37026,157.108118 2769.34049,141.016656 2759.28079,129.522583 C2749.2211,118.028509 2734.85032,112.281558 2716.16802,112.281558 C2697.77315,112.281558 2683.11496,118.100346 2672.193,129.738095 C2661.27104,141.375845 2655.81015,157.39547 2655.81015,177.797451 L2655.81015,301.180731 C2655.81015,304.054249 2654.87605,306.424867 2653.00782,308.292654 C2651.13959,310.160441 2648.76841,311.09432 2645.89421,311.09432 L2626.06234,311.09432 Z M2884.08651,311.09432 C2881.21231,311.09432 2878.84113,310.160441 2876.9729,308.292654 C2875.10467,306.424867 2874.17057,304.054249 2874.17057,301.180731 L2874.17057,11.7426356 C2874.17057,8.5817653 2875.03281,6.06747438 2876.75733,4.1996874 C2878.48185,2.33190042 2880.92489,1.39802093 2884.08651,1.39802093 L2904.34951,1.39802093 C2909.52306,1.39802093 2913.11576,3.55312743 2915.1277,7.86340509 L3006.9579,184.15288 L3099.65035,7.86340509 C3101.94971,3.55312743 3105.3987,1.39802093 3109.99742,1.39802093 L3130.26042,1.39802093 C3133.42204,1.39802093 3135.86507,2.33190042 3137.58959,4.1996874 C3139.31411,6.06747438 3140.17635,8.5817653 3140.17635,11.7426356 L3140.17635,301.180731 C3140.17635,304.054249 3139.24225,306.424867 3137.37402,308.292654 C3135.50579,310.160441 3133.13462,311.09432 3130.26042,311.09432 L3110.42854,311.09432 C3107.55434,311.09432 3105.25502,310.160441 3103.5305,308.292654 C3101.80598,306.424867 3100.94373,304.054249 3100.94373,301.180731 L3100.94373,78.9826308 L3027.2209,221.652108 C3024.3467,227.686496 3019.74805,230.703646 3013.42481,230.703646 L3000.49098,230.703646 C2994.45516,230.703646 2989.85651,227.686496 2986.6949,221.652108 L2913.40319,78.9826308 L2913.40319,301.180731 C2913.40319,304.054249 2912.46909,306.424867 2910.60086,308.292654 C2908.73263,310.160441 2906.36145,311.09432 2903.48725,311.09432 L2884.08651,311.09432 Z M3224.79144,-3.56468327e-13 L3252.37435,27.5716952 L3224.79144,55.1433903 L3197.20853,27.5716952 L3224.79144,-3.56468327e-13 Z M3215.20332,311.173171 C3212.32912,311.173171 3209.95794,310.239291 3208.08971,308.371504 C3206.22148,306.503717 3205.28738,304.1331 3205.28738,301.259582 L3205.28738,88.9750704 C3205.28738,86.1015519 3206.22148,83.7309348 3208.08971,81.8631478 C3209.95794,79.9953608 3212.32912,79.0614813 3215.20332,79.0614813 L3234.17293,79.0614813 C3237.04713,79.0614813 3239.41831,79.9953608 3241.28654,81.8631478 C3243.15477,83.7309348 3244.08887,86.1015519 3244.08887,88.9750704 L3244.08887,301.259582 C3244.08887,304.1331 3243.15477,306.503717 3241.28654,308.371504 C3239.41831,310.239291 3237.04713,311.173171 3234.17293,311.173171 L3215.20332,311.173171 Z M3318.51472,311.09432 C3315.64052,311.09432 3313.26934,310.160441 3311.40111,308.292654 C3309.53288,306.424867 3308.59878,304.054249 3308.59878,301.180731 L3308.59878,88.8962198 C3308.59878,86.0227014 3309.53288,83.6520842 3311.40111,81.7842972 C3313.26934,79.9165102 3315.64052,78.9826308 3318.51472,78.9826308 L3337.05321,78.9826308 C3340.21483,78.9826308 3342.65786,79.8446734 3344.38238,81.5687844 C3346.1069,83.2928955 3346.96915,85.7353495 3346.96915,88.8962198 L3346.96915,111.850533 C3355.59174,101.218514 3365.57943,93.0291097 3376.93252,87.2820729 C3388.28561,81.535036 3402.44082,78.6615607 3419.3986,78.6615607 C3446.99091,78.6615607 3468.40337,87.4974973 3483.63662,105.169636 C3498.86988,122.841774 3506.48639,146.188761 3506.48639,175.211297 L3506.48639,301.180731 C3506.48639,304.054249 3505.55229,306.424867 3503.68406,308.292654 C3501.81583,310.160441 3499.44465,311.09432 3496.57045,311.09432 L3476.73858,311.09432 C3473.86438,311.09432 3471.4932,310.160441 3469.62497,308.292654 C3467.75674,306.424867 3466.82264,304.054249 3466.82264,301.180731 L3466.82264,177.797451 C3466.82264,157.108118 3461.79287,141.016656 3451.73317,129.522583 C3441.67348,118.028509 3427.3027,112.281558 3408.62041,112.281558 C3390.22553,112.281558 3375.56734,118.100346 3364.64538,129.738095 C3353.72342,141.375845 3348.26253,157.39547 3348.26253,177.797451 L3348.26253,301.180731 C3348.26253,304.054249 3347.32843,306.424867 3345.4602,308.292654 C3343.59197,310.160441 3341.22079,311.09432 3338.34659,311.09432 L3318.51472,311.09432 Z M3655.15263,311.41539 C3625.8358,311.41539 3602.41143,302.292106 3584.87881,284.045264 C3567.3462,265.798422 3557.71778,240.871023 3555.99326,209.262321 L3555.56213,194.60745 L3555.99326,180.383605 C3557.71778,149.349606 3567.3462,124.637718 3584.87881,106.2472 C3602.41143,87.8566817 3625.8358,78.6615607 3655.15263,78.6615607 C3686.76882,78.6615607 3711.27099,88.7187243 3728.6599,108.833353 C3746.0488,128.947982 3754.74312,156.245998 3754.74312,190.728219 L3754.74312,198.48668 C3754.74312,201.360199 3753.80902,203.730816 3751.94079,205.598603 C3750.07256,207.46639 3747.70139,208.400269 3744.82719,208.400269 L3595.22588,208.400269 L3595.22588,212.2795 C3596.08814,230.95737 3601.83645,246.905158 3612.47099,260.123343 C3623.10552,273.341527 3637.18889,279.950521 3654.7215,279.950521 C3668.23023,279.950521 3679.22388,277.292556 3687.70277,271.976547 C3696.18165,266.660538 3702.57665,261.129098 3706.88795,255.382061 C3709.47473,251.933839 3711.48664,249.850569 3712.92374,249.132189 C3714.36084,248.41381 3716.80387,248.054625 3720.25291,248.054625 L3739.22253,248.054625 C3741.80931,248.054625 3744.03678,248.772994 3745.90501,250.209754 C3747.77324,251.646513 3748.70734,253.514272 3748.70734,255.813086 C3748.70734,262.134827 3744.82723,269.749537 3737.06689,278.657444 C3729.30655,287.565351 3718.3129,295.251897 3704.08562,301.717314 C3689.85833,308.18273 3673.5475,311.41539 3655.15263,311.41539 Z M3715.5105,179.090528 L3715.5105,177.797451 C3715.5105,157.682822 3710.04961,141.304013 3699.12765,128.660531 C3688.2057,116.01705 3673.5475,109.695405 3655.15263,109.695405 C3636.47033,109.695405 3621.81214,116.01705 3611.1776,128.660531 C3600.54307,141.304013 3595.22588,157.682822 3595.22588,177.797451 L3595.22588,179.090528 L3715.5105,179.090528 Z M3887.92469,311.41539 C3857.7456,311.41539 3835.11163,301.645574 3820.02208,282.105649 C3804.93254,262.565723 3796.81305,237.853835 3795.66337,207.969244 L3795.23224,195.038475 L3795.66337,182.107707 C3796.81305,152.510467 3805.00439,127.870416 3820.23765,108.186815 C3835.4709,88.5032137 3858.03302,78.6615607 3887.92469,78.6615607 C3917.81636,78.6615607 3941.09703,89.2934194 3957.76738,110.557456 L3957.76738,10.9905399 C3957.76738,8.11702143 3958.70148,5.74640428 3960.56971,3.8786173 C3962.43794,2.01083032 3964.80912,1.07695084 3967.68332,1.07695084 L3987.08406,1.07695084 C3989.95826,1.07695084 3992.32944,2.01083032 3994.19767,3.8786173 C3996.0659,5.74640428 3997,8.11702143 3997,10.9905399 L3997,301.180731 C3997,304.054249 3996.0659,306.424867 3994.19767,308.292654 C3992.32944,310.160441 3989.95826,311.09432 3987.08406,311.09432 L3968.54557,311.09432 C3965.67137,311.09432 3963.37205,310.160441 3961.64753,308.292654 C3959.92301,306.424867 3959.06076,304.054249 3959.06076,301.180731 L3959.06076,278.657444 C3942.67783,300.496184 3918.96604,311.41539 3887.92469,311.41539 Z M3896.11612,277.795393 C3916.23551,277.795393 3931.32483,271.114562 3941.38453,257.752702 C3951.44422,244.390841 3956.90512,228.51489 3957.76738,210.124372 C3958.0548,206.963501 3958.19851,201.503898 3958.19851,193.745399 C3958.19851,185.699547 3958.0548,180.09627 3957.76738,176.9354 C3957.19254,159.406937 3951.65979,144.249355 3941.16896,131.462198 C3930.67814,118.675041 3915.66067,112.281558 3896.11612,112.281558 C3875.42189,112.281558 3860.33257,118.746878 3850.84771,131.677711 C3841.36286,144.608544 3836.18938,161.562048 3835.32712,182.538733 L3834.89599,195.038475 C3834.89599,250.210029 3855.30249,277.795393 3896.11612,277.795393 Z" id="OpenMined" fill="#333333"></path>
            <path d="M127.250439,311 C152.846367,311 175.134955,306.608565 194.116204,297.825694 C213.097454,289.042824 227.836682,277.02037 238.333888,261.758333 C248.831094,246.496296 254.367292,229.3625 254.942481,210.356944 C255.230076,207.765278 254.43919,205.605556 252.569825,203.877778 C250.700459,202.15 248.471601,201.286111 245.883248,201.286111 L245.883248,201.286111 L204.038221,201.286111 C200.587085,201.286111 197.998733,202.078009 196.273165,203.661806 C194.547596,205.245602 193.109623,208.053241 191.959244,212.084722 C187.645324,229.938426 180.095963,242.536806 169.311163,249.879861 C158.526362,257.222917 144.506121,260.894444 127.250439,260.894444 C86.1243988,260.894444 64.6985945,237.857407 62.9730264,191.783333 C62.6854317,183.432407 62.5416343,171.193981 62.5416343,155.068056 C62.5416343,138.94213 62.6854317,126.991667 62.9730264,119.216667 C64.6985945,73.1425926 86.1243988,50.1055556 127.250439,50.1055556 C144.793715,50.1055556 158.885855,53.7770833 169.526859,61.1201389 C180.167862,68.4631944 187.645324,81.0615741 191.959244,98.9152778 C193.109623,102.946759 194.547596,105.754398 196.273165,107.338194 C197.998733,108.921991 200.587085,109.713889 204.038221,109.713889 L204.038221,109.713889 L245.883248,109.713889 C248.184006,109.713889 250.269067,108.921991 252.138433,107.338194 C254.007798,105.754398 254.942481,103.810648 254.942481,101.506944 L254.942481,101.506944 L254.942481,100.643056 C254.367292,81.6375 248.831094,64.5037037 238.333888,49.2416667 C227.836682,33.9796296 213.097454,21.9571759 194.116204,13.1743056 C175.134955,4.39143519 152.846367,0 127.250439,0 C87.8499669,0 57.2211326,10.2946759 35.3639362,30.8840278 C13.5067399,51.4733796 1.85915501,80.1976852 0.421181571,117.056944 C0.177832219,123.879452 0.0374383618,134.206928 0,148.039374 L0,163.691609 C0.0374383618,177.280394 0.177832219,187.364209 0.421181571,193.943056 C1.85915501,231.378241 13.4348412,260.246528 35.1482402,280.547917 C56.8616392,300.849306 87.5623722,311 127.250439,311 Z M402.2167,312 C436.021869,312 462.170311,303.333333 480.662028,286 C499.153744,268.666667 509.121935,244.688889 510.5666,214.066667 C510.855533,210.6 511,204.244444 511,195 C511,185.755556 510.855533,179.4 510.5666,175.933333 C509.121935,145.6 499.009278,121.694444 480.228628,104.216667 C461.447979,86.7388889 435.444003,78 402.2167,78 C368.700464,78 342.552021,86.7388889 323.771372,104.216667 C304.990722,121.694444 294.878065,145.6 293.4334,175.933333 L293.4334,175.933333 L293,195 L293.4334,214.066667 C294.878065,244.688889 304.846256,268.666667 323.337972,286 C341.829689,303.333333 368.122598,312 402.2167,312 Z M402.215859,268 C386.961821,268 375.161527,263.230088 366.814978,253.690265 C358.468429,244.150442 354.007342,230.129794 353.431718,211.628319 L353.431718,211.628319 L353,194.716814 L353.431718,177.80531 C354.007342,159.303835 358.468429,145.210914 366.814978,135.526549 C375.161527,125.842183 386.961821,121 402.215859,121 C417.182085,121 428.838473,125.842183 437.185022,135.526549 C445.531571,145.210914 449.992658,159.303835 450.568282,177.80531 C450.856094,180.696165 451,186.333333 451,194.716814 C451,203.100295 450.856094,208.737463 450.568282,211.628319 C449.992658,230.129794 445.603524,244.150442 437.400881,253.690265 C429.198238,263.230088 417.469897,268 402.215859,268 Z M641.2,311 C673.042424,311 696.852525,300.245283 712.630303,278.735849 L712.630303,278.735849 L712.630303,296.373585 C712.630303,299.241509 713.634343,301.679245 715.642424,303.686792 C717.650505,305.69434 720.088889,306.698113 722.957576,306.698113 L722.957576,306.698113 L758.672727,306.698113 C761.828283,306.698113 764.338384,305.69434 766.20303,303.686792 C768.067677,301.679245 769,299.241509 769,296.373585 L769,296.373585 L769,93.3245283 C769,90.1698113 768.067677,87.6603774 766.20303,85.7962264 C764.338384,83.9320755 761.828283,83 758.672727,83 L758.672727,83 L720.375758,83 C717.507071,83 715.068687,83.9320755 713.060606,85.7962264 C711.052525,87.6603774 710.048485,90.1698113 710.048485,93.3245283 L710.048485,93.3245283 L710.048485,211.626415 C710.048485,227.973585 705.673737,240.879245 696.924242,250.343396 C688.174747,259.807547 676.341414,264.539623 661.424242,264.539623 C630.729293,264.539623 615.381818,246.901887 615.381818,211.626415 L615.381818,211.626415 L615.381818,93.3245283 C615.381818,90.4566038 614.377778,88.0188679 612.369697,86.0113208 C610.361616,84.0037736 607.923232,83 605.054545,83 L605.054545,83 L566.327273,83 C563.458586,83 561.020202,83.9320755 559.012121,85.7962264 C557.00404,87.6603774 556,90.1698113 556,93.3245283 L556,93.3245283 L556,214.207547 C556,244.320755 563.60202,267.981132 578.806061,285.188679 C594.010101,302.396226 614.808081,311 641.2,311 Z M875.71261,307 C878.58651,307 881.029326,305.994872 883.041056,303.984615 C885.052786,301.974359 886.058651,299.533333 886.058651,296.661538 L886.058651,296.661538 L886.058651,178.630769 C886.058651,165.133333 889.938416,154.507692 897.697947,146.753846 C905.457478,139 916.090909,135.123077 929.59824,135.123077 L929.59824,135.123077 L963.653959,135.123077 C966.815249,135.123077 969.329912,134.117949 971.197947,132.107692 C973.065982,130.097436 974,127.65641 974,124.784615 L974,124.784615 L974,93.3384615 C974,90.1794872 973.065982,87.6666667 971.197947,85.8 C969.329912,83.9333333 966.815249,83 963.653959,83 L963.653959,83 L945.548387,83 C918.533724,83 897.841642,92.4769231 883.472141,111.430769 L883.472141,111.430769 L883.472141,93.7692308 C883.472141,90.6102564 882.466276,88.025641 880.454545,86.0153846 C878.442815,84.0051282 875.856305,83 872.695015,83 L872.695015,83 L837.346041,83 C834.472141,83 832.029326,84.0051282 830.017595,86.0153846 C828.005865,88.025641 827,90.6102564 827,93.7692308 L827,93.7692308 L827,296.661538 C827,299.533333 828.005865,301.974359 830.017595,303.984615 C832.029326,305.994872 834.472141,307 837.346041,307 L837.346041,307 L875.71261,307 Z M1092.7087,312 C1124.27391,312 1148.88043,305.644444 1166.52826,292.933333 C1184.17609,280.222222 1193,263.611111 1193,243.1 C1193,207.855556 1167.17391,185.177778 1115.52174,175.066667 C1098.87826,171.888889 1086.39565,168.783333 1078.07391,165.75 C1069.75217,162.716667 1064.22826,159.466667 1061.50217,156 C1058.77609,152.533333 1057.41304,148.2 1057.41304,143 C1057.41304,135.488889 1060.28261,129.422222 1066.02174,124.8 C1071.76087,120.177778 1079.93913,117.866667 1090.55652,117.866667 C1098.30435,117.866667 1104.90435,119.022222 1110.35652,121.333333 C1115.8087,123.644444 1120.7587,126.75 1125.20652,130.65 C1129.65435,134.55 1132.88261,137.222222 1134.8913,138.666667 C1136.61304,140.977778 1139.05217,142.133333 1142.2087,142.133333 L1142.2087,142.133333 L1174.4913,142.133333 C1177.07391,142.133333 1179.29783,141.194444 1181.16304,139.316667 C1183.02826,137.438889 1183.96087,135.2 1183.96087,132.6 C1183.96087,125.955556 1180.30217,118.3 1172.98478,109.633333 C1165.66739,100.966667 1154.97826,93.5277778 1140.91739,87.3166667 C1126.85652,81.1055556 1110.06957,78 1090.55652,78 C1071.61739,78 1055.33261,81.25 1041.70217,87.75 C1028.07174,94.25 1017.81304,102.627778 1010.92609,112.883333 C1004.03913,123.138889 1000.59565,134.044444 1000.59565,145.6 C1000.59565,163.222222 1006.40652,177.377778 1018.02826,188.066667 C1029.65,198.755556 1047.65652,206.7 1072.04783,211.9 C1088.97826,215.655556 1101.67609,219.05 1110.1413,222.083333 C1118.60652,225.116667 1124.48913,228.438889 1127.78913,232.05 C1131.08913,235.661111 1132.73913,240.355556 1132.73913,246.133333 C1132.73913,254.511111 1129.15217,260.938889 1121.97826,265.416667 C1114.80435,269.894444 1105.47826,272.133333 1094,272.133333 C1086.25217,272.133333 1079.15,270.905556 1072.69348,268.45 C1066.23696,265.994444 1060.49783,262.6 1055.47609,258.266667 C1050.45435,253.933333 1047.22609,251.188889 1045.7913,250.033333 C1044.06957,247.722222 1042.06087,246.566667 1039.76522,246.566667 L1039.76522,246.566667 L1004.46957,246.566667 C1001.88696,246.566667 999.663043,247.433333 997.797826,249.166667 C995.932609,250.9 995,253.211111 995,256.1 C995,262.455556 998.515217,270.038889 1005.54565,278.85 C1012.57609,287.661111 1023.4087,295.388889 1038.04348,302.033333 C1052.67826,308.677778 1070.9,312 1092.7087,312 Z M1334.71515,312 C1354.79596,312 1372.43838,308.533333 1387.64242,301.6 C1402.84646,294.666667 1414.53636,286.505556 1422.71212,277.116667 C1430.88788,267.727778 1434.97576,259.566667 1434.97576,252.633333 C1434.97576,250.033333 1434.04343,248.011111 1432.17879,246.566667 C1430.31414,245.122222 1428.09091,244.4 1425.50909,244.4 L1425.50909,244.4 L1387.64242,244.4 C1384.2,244.4 1381.76162,244.761111 1380.32727,245.483333 C1378.89293,246.205556 1376.88485,248.155556 1374.30303,251.333333 C1363.97576,264.622222 1350.63636,271.266667 1334.28485,271.266667 C1319.94141,271.266667 1308.68182,265.994444 1300.50606,255.45 C1292.3303,244.905556 1287.95556,231.544444 1287.38182,215.366667 L1287.38182,215.366667 L1287.38182,211.9 L1430.24242,211.9 C1433.39798,211.9 1435.9798,210.888889 1437.98788,208.866667 C1439.99596,206.844444 1441,204.388889 1441,201.5 L1441,201.5 L1441,192.4 C1441,157.733333 1431.74848,130 1413.24545,109.2 C1394.74242,88.4 1368.42222,78 1334.28485,78 C1301.00808,78 1274.97475,88.4 1256.18485,109.2 C1237.39495,130 1228,158.455556 1228,194.566667 L1228,194.566667 L1228.4303,205.4 C1229.57778,239.488889 1239.54646,265.777778 1258.33636,284.266667 C1277.12626,302.755556 1302.58586,312 1334.71515,312 Z M1382,175 L1288,175 L1288,174.136364 C1288,157.151515 1292.14916,143.549242 1300.44749,133.329545 C1308.74581,123.109848 1320.19178,118 1334.78539,118 C1349.379,118 1360.8965,123.109848 1369.3379,133.329545 C1377.7793,143.549242 1382,157.151515 1382,174.136364 L1382,174.136364 L1382,175 Z M1572.7087,312 C1604.27391,312 1628.88043,305.644444 1646.52826,292.933333 C1664.17609,280.222222 1673,263.611111 1673,243.1 C1673,207.855556 1647.17391,185.177778 1595.52174,175.066667 C1578.87826,171.888889 1566.39565,168.783333 1558.07391,165.75 C1549.75217,162.716667 1544.22826,159.466667 1541.50217,156 C1538.77609,152.533333 1537.41304,148.2 1537.41304,143 C1537.41304,135.488889 1540.28261,129.422222 1546.02174,124.8 C1551.76087,120.177778 1559.93913,117.866667 1570.55652,117.866667 C1578.30435,117.866667 1584.90435,119.022222 1590.35652,121.333333 C1595.8087,123.644444 1600.7587,126.75 1605.20652,130.65 C1609.65435,134.55 1612.88261,137.222222 1614.8913,138.666667 C1616.61304,140.977778 1619.05217,142.133333 1622.2087,142.133333 L1622.2087,142.133333 L1654.4913,142.133333 C1657.07391,142.133333 1659.29783,141.194444 1661.16304,139.316667 C1663.02826,137.438889 1663.96087,135.2 1663.96087,132.6 C1663.96087,125.955556 1660.30217,118.3 1652.98478,109.633333 C1645.66739,100.966667 1634.97826,93.5277778 1620.91739,87.3166667 C1606.85652,81.1055556 1590.06957,78 1570.55652,78 C1551.61739,78 1535.33261,81.25 1521.70217,87.75 C1508.07174,94.25 1497.81304,102.627778 1490.92609,112.883333 C1484.03913,123.138889 1480.59565,134.044444 1480.59565,145.6 C1480.59565,163.222222 1486.40652,177.377778 1498.02826,188.066667 C1509.65,198.755556 1527.65652,206.7 1552.04783,211.9 C1568.97826,215.655556 1581.67609,219.05 1590.1413,222.083333 C1598.60652,225.116667 1604.48913,228.438889 1607.78913,232.05 C1611.08913,235.661111 1612.73913,240.355556 1612.73913,246.133333 C1612.73913,254.511111 1609.15217,260.938889 1601.97826,265.416667 C1594.80435,269.894444 1585.47826,272.133333 1574,272.133333 C1566.25217,272.133333 1559.15,270.905556 1552.69348,268.45 C1546.23696,265.994444 1540.49783,262.6 1535.47609,258.266667 C1530.45435,253.933333 1527.22609,251.188889 1525.7913,250.033333 C1524.06957,247.722222 1522.06087,246.566667 1519.76522,246.566667 L1519.76522,246.566667 L1484.46957,246.566667 C1481.88696,246.566667 1479.66304,247.433333 1477.79783,249.166667 C1475.93261,250.9 1475,253.211111 1475,256.1 C1475,262.455556 1478.51522,270.038889 1485.54565,278.85 C1492.57609,287.661111 1503.4087,295.388889 1518.04348,302.033333 C1532.67826,308.677778 1550.9,312 1572.7087,312 Z M1768.69128,306 C1771.84116,306 1774.34676,304.997763 1776.20805,302.993289 C1778.06935,300.988814 1779,298.55481 1779,295.691275 L1779,295.691275 L1779,252.308725 C1779,249.44519 1777.99776,247.011186 1775.99329,245.006711 C1773.98881,243.002237 1771.55481,242 1768.69128,242 L1768.69128,242 L1725.30872,242 C1722.44519,242 1720.01119,243.002237 1718.00671,245.006711 C1716.00224,247.011186 1715,249.44519 1715,252.308725 L1715,252.308725 L1715,295.691275 C1715,298.55481 1716.00224,300.988814 1718.00671,302.993289 C1720.01119,304.997763 1722.44519,306 1725.30872,306 L1725.30872,306 L1768.69128,306 Z" id="Courses." fill="#323232"></path>
        </g>
    </g>
</svg>