<svg width="57" height="57" viewBox="0 0 57 57" fill="none" xmlns="http://www.w3.org/2000/svg">
<path fill-rule="evenodd" clip-rule="evenodd" d="M2.58008 0.078125C1.47551 0.078125 0.580078 0.973556 0.580078 2.07813V40.3181C0.580078 41.4227 1.47551 42.3181 2.58008 42.3181H28.7401V34.5741C28.7401 33.0253 30.1657 31.7581 31.9081 31.7581H53.3801V2.07812C53.3801 0.973556 52.4846 0.078125 51.3801 0.078125H2.58008Z" fill="white"/>
<path fill-rule="evenodd" clip-rule="evenodd" d="M2.58008 2.07812H51.3801V31.7581H53.3801V2.07812C53.3801 0.973556 52.4846 0.078125 51.3801 0.078125H2.58008C1.47551 0.078125 0.580078 0.973556 0.580078 2.07812V40.3181C0.580078 41.4227 1.47551 42.3181 2.58008 42.3181H28.7401V40.3181H2.58008L2.58008 2.07812Z" fill="#323232"/>
<path d="M2.33984 12.3984H51.6198" stroke="#323232" stroke-width="2"/>
<ellipse cx="9.37914" cy="7.11937" rx="1.76" ry="1.76" fill="#323232"/>
<circle cx="14.6584" cy="7.11937" r="1.76" fill="#323232"/>
<ellipse cx="19.9397" cy="7.11937" rx="1.76" ry="1.76" fill="#323232"/>
<path d="M51.9724 52.2293H52.2661L52.5131 52.3882L55.9004 54.5657V37.3893C55.9004 36.9191 55.3895 36.2773 54.4364 36.2773H34.7244C33.7713 36.2773 33.2604 36.9191 33.2604 37.3893V51.1173C33.2604 51.5876 33.7713 52.2293 34.7244 52.2293H51.9724Z" fill="#747474" stroke="#323232" stroke-width="2"/>
<path d="M23.2068 18.5662L16.419 23.581L23.2066 28.5955" stroke="#323232" stroke-width="2" stroke-linecap="round" stroke-linejoin="round"/>
<path d="M31.0628 18.5662L37.8505 23.581L31.063 28.5955" stroke="#323232" stroke-width="2" stroke-linecap="round" stroke-linejoin="round"/>
</svg>
