<svg width="142" height="13" viewBox="0 0 142 13" fill="none" xmlns="http://www.w3.org/2000/svg">
<g clip-path="url(#clip0)">
<path d="M9.38215 0.412765V2.05955C9.38359 2.08343 9.37997 2.10735 9.37152 2.12974C9.36308 2.15213 9.35 2.17249 9.33315 2.18948C9.3163 2.20647 9.29605 2.2197 9.27372 2.22833C9.2514 2.23695 9.22751 2.24076 9.20362 2.23951H2.13088V5.60591H7.96817C7.992 5.60445 8.01586 5.60807 8.03818 5.61652C8.06051 5.62498 8.08078 5.63808 8.09766 5.65496C8.11454 5.67184 8.12764 5.69211 8.13609 5.71443C8.14455 5.73675 8.14816 5.76062 8.1467 5.78444V7.43122C8.14838 7.45517 8.14492 7.47919 8.13656 7.50168C8.1282 7.52418 8.11513 7.54463 8.09823 7.56167C8.08132 7.5787 8.06098 7.59194 8.03855 7.60047C8.01612 7.60901 7.99212 7.61267 7.96817 7.61118H2.13088V12.5887C2.13211 12.6126 2.1283 12.6366 2.11969 12.659C2.11108 12.6814 2.09787 12.7017 2.08091 12.7186C2.06395 12.7356 2.04361 12.7488 2.02122 12.7574C1.99883 12.766 1.97488 12.7699 1.95092 12.7686H0.178454C0.154557 12.7699 0.130666 12.7661 0.108343 12.7574C0.0860206 12.7488 0.0657699 12.7356 0.0489167 12.7186C0.0320635 12.7016 0.0189869 12.6813 0.0105438 12.6589C0.00210075 12.6365 -0.0015186 12.6125 -7.83141e-05 12.5887V0.412765C-0.0017512 0.388824 0.0017082 0.364802 0.0100687 0.342306C0.0184293 0.31981 0.0314978 0.299359 0.0484002 0.282322C0.0653026 0.265284 0.0856486 0.252053 0.108077 0.243514C0.130506 0.234974 0.1545 0.231322 0.178454 0.232805H9.20362C9.22757 0.231322 9.25156 0.234974 9.27399 0.243514C9.29642 0.252053 9.31677 0.265284 9.33367 0.282322C9.35057 0.299359 9.36364 0.31981 9.372 0.342306C9.38036 0.364802 9.38382 0.388824 9.38215 0.412765Z" fill="#67788A"/>
<path d="M23.8147 12.7686H21.8637C21.8155 12.7722 21.7677 12.7576 21.7297 12.7277C21.6916 12.6979 21.6661 12.6549 21.6581 12.6073C21.3981 11.5775 21.0868 10.4934 20.7268 9.40224H14.7353C14.3768 10.4934 14.064 11.5775 13.8126 12.6073C13.8043 12.6548 13.7787 12.6975 13.7407 12.7273C13.7028 12.7571 13.6551 12.7718 13.607 12.7686H11.7274C11.6031 12.7686 11.5317 12.6958 11.5674 12.5715C12.6943 8.57242 14.4139 4.17339 16.1507 0.465636C16.1751 0.393633 16.2227 0.331742 16.286 0.289626C16.3493 0.247509 16.4248 0.227538 16.5006 0.23283H19.0429C19.1188 0.227538 19.1942 0.247509 19.2575 0.289626C19.3208 0.331742 19.3684 0.393633 19.3928 0.465636C21.237 4.37396 22.7695 8.42185 23.9761 12.5715C24.019 12.6958 23.9404 12.7686 23.8147 12.7686ZM20.0641 7.46696C19.41 5.65878 18.6844 3.85061 17.9417 2.2024H17.5204C16.7777 3.85061 16.0436 5.65878 15.3894 7.46696H20.0641Z" fill="#67788A"/>
<path d="M27.0184 6.60854C27.0184 2.72226 29.5792 0 33.2327 0H33.5012C35.7936 0 37.5661 1.16403 38.5001 2.84794C38.5167 2.86705 38.5285 2.88987 38.5344 2.91449C38.5402 2.9391 38.5401 2.96477 38.5339 2.98931C38.5277 3.01385 38.5157 3.03654 38.4989 3.05545C38.4821 3.07435 38.461 3.08891 38.4373 3.09789L36.8662 3.87772C36.8407 3.89433 36.812 3.90544 36.782 3.91034C36.752 3.91523 36.7213 3.9138 36.6918 3.90614C36.6624 3.89848 36.6349 3.88475 36.611 3.86583C36.5872 3.84692 36.5676 3.82324 36.5534 3.79631C35.8907 2.6537 34.8966 2.04241 33.4284 2.04241H33.1599C30.859 2.04241 29.2736 3.86772 29.2736 6.51857C29.2736 9.16941 30.8318 10.959 33.1599 10.959H33.4284C34.9323 10.959 35.8093 10.4491 36.4806 9.67358C36.5136 9.62865 36.5619 9.59742 36.6164 9.58583C36.6709 9.57424 36.7278 9.58311 36.7762 9.61074L38.4002 10.3963C38.4252 10.4071 38.4467 10.4245 38.4626 10.4466C38.4784 10.4688 38.488 10.4948 38.4901 10.522C38.4865 10.5713 38.4675 10.6182 38.4359 10.6562C37.4361 12.1073 35.6508 13.0028 33.467 13.0028H33.1984C29.4821 13.0014 27.0184 10.4491 27.0184 6.60854Z" fill="#67788A"/>
<path d="M52.7698 10.9419V12.5887C52.7713 12.6125 52.7677 12.6365 52.7592 12.6589C52.7508 12.6813 52.7377 12.7016 52.7209 12.7186C52.704 12.7356 52.6838 12.7488 52.6614 12.7574C52.6391 12.7661 52.6152 12.7699 52.5913 12.7686H43.1891C43.1652 12.7699 43.1413 12.7661 43.119 12.7574C43.0966 12.7488 43.0764 12.7356 43.0595 12.7186C43.0427 12.7016 43.0296 12.6813 43.0212 12.6589C43.0127 12.6365 43.0091 12.6125 43.0105 12.5887V0.412765C43.0089 0.388824 43.0123 0.364802 43.0207 0.342306C43.029 0.31981 43.0421 0.299359 43.059 0.282322C43.0759 0.265284 43.0963 0.252053 43.1187 0.243514C43.1411 0.234974 43.1651 0.231322 43.1891 0.232805H52.4299C52.4539 0.231322 52.4779 0.234974 52.5003 0.243514C52.5227 0.252053 52.5431 0.265284 52.56 0.282322C52.5769 0.299359 52.59 0.31981 52.5983 0.342306C52.6067 0.364802 52.6101 0.388824 52.6085 0.412765V2.05955C52.6099 2.08343 52.6063 2.10735 52.5978 2.12974C52.5894 2.15213 52.5763 2.17249 52.5595 2.18948C52.5426 2.20647 52.5224 2.2197 52.5 2.22833C52.4777 2.23695 52.4538 2.24076 52.4299 2.23951H45.1458V5.49736H51.0731C51.097 5.49611 51.1209 5.49992 51.1432 5.50854C51.1655 5.51717 51.1858 5.5304 51.2026 5.54739C51.2195 5.56438 51.2325 5.58473 51.241 5.60713C51.2494 5.62952 51.2531 5.65344 51.2516 5.67732V7.30696C51.2531 7.33079 51.2495 7.35466 51.241 7.37698C51.2325 7.3993 51.2194 7.41957 51.2026 7.43645C51.1857 7.45333 51.1654 7.46643 51.1431 7.47489C51.1208 7.48334 51.0969 7.48696 51.0731 7.4855H45.1458V10.7619H52.5956C52.6191 10.7613 52.6426 10.7656 52.6644 10.7744C52.6862 10.7833 52.7059 10.7967 52.7223 10.8136C52.7387 10.8305 52.7514 10.8507 52.7595 10.8727C52.7677 10.8948 52.7712 10.9184 52.7698 10.9419Z" fill="#67788A"/>
<path d="M68.9577 9.32938C68.9577 11.5232 67.2738 12.7686 64.3016 12.7686H58.1415C58.1176 12.7699 58.0937 12.7661 58.0714 12.7574C58.0491 12.7488 58.0288 12.7356 58.012 12.7186C57.9951 12.7016 57.9821 12.6813 57.9736 12.6589C57.9652 12.6365 57.9616 12.6125 57.963 12.5887V0.412765C57.9613 0.388824 57.9648 0.364802 57.9731 0.342306C57.9815 0.31981 57.9946 0.299359 58.0115 0.282322C58.0284 0.265284 58.0487 0.252053 58.0712 0.243514C58.0936 0.234974 58.1176 0.231322 58.1415 0.232805H63.756C66.6468 0.232805 68.2236 1.37541 68.2236 3.47495C68.2236 4.85322 67.5252 5.76016 66.1098 6.17864C68.0979 6.59855 68.9577 7.78972 68.9577 9.32938ZM63.7103 2.18809H60.094V5.55449H63.7103C65.3314 5.55449 66.0741 5.02604 66.0741 3.87058C66.0741 2.71512 65.3314 2.18523 63.7103 2.18523V2.18809ZM66.7725 9.14513C66.7725 7.9811 66.0027 7.45265 64.3102 7.45265H60.094V10.8191H64.3102C66.0298 10.8162 66.7725 10.3149 66.7725 9.14228V9.14513Z" fill="#67788A"/>
<path d="M72.7083 6.5C72.7083 2.72226 75.2148 0 79.1554 0H79.4239C83.3631 0 85.8697 2.72226 85.8697 6.5C85.8697 10.2777 83.3631 13.0014 79.4239 13.0014H79.1497C75.2148 13.0014 72.7083 10.2792 72.7083 6.5ZM79.4211 10.959C81.992 10.959 83.6102 9.19512 83.6102 6.5C83.6102 3.80488 81.9905 2.04241 79.4211 2.04241H79.1497C76.5788 2.04241 74.9592 3.8063 74.9592 6.5C74.9592 9.19369 76.5788 10.959 79.1497 10.959H79.4211Z" fill="#67788A"/>
<path d="M89.5046 6.5C89.5046 2.72226 92.0112 0 95.9518 0H96.2203C100.159 0 102.666 2.72226 102.666 6.5C102.666 10.2777 100.159 13.0014 96.2203 13.0014H95.9518C92.0112 13.0014 89.5046 10.2792 89.5046 6.5ZM96.2175 10.959C98.7883 10.959 100.407 9.19512 100.407 6.5C100.407 3.80488 98.7869 2.04241 96.2175 2.04241H95.9489C93.3781 2.04241 91.7584 3.8063 91.7584 6.5C91.7584 9.19369 93.3781 10.959 95.9489 10.959H96.2175Z" fill="#67788A"/>
<path d="M118.111 12.7686H115.8C115.739 12.7738 115.678 12.7624 115.623 12.7355C115.568 12.7086 115.521 12.6672 115.487 12.6158C113.898 10.7554 112.171 9.01662 110.321 7.41406H109.286V12.5886C109.287 12.6125 109.284 12.6364 109.275 12.6588C109.267 12.6812 109.254 12.7016 109.237 12.7186C109.22 12.7356 109.2 12.7488 109.178 12.7574C109.155 12.766 109.131 12.7698 109.107 12.7686H107.331C107.307 12.7698 107.283 12.766 107.261 12.7574C107.238 12.7488 107.218 12.7356 107.201 12.7186C107.184 12.7016 107.171 12.6812 107.163 12.6588C107.154 12.6364 107.151 12.6125 107.152 12.5886V0.412738C107.15 0.388797 107.154 0.364775 107.162 0.342279C107.171 0.319783 107.184 0.299332 107.201 0.282295C107.218 0.265257 107.238 0.252027 107.26 0.243487C107.283 0.234947 107.307 0.231296 107.331 0.232778H109.103C109.127 0.230648 109.152 0.233818 109.175 0.242068C109.198 0.250318 109.219 0.263452 109.236 0.280562C109.253 0.297673 109.267 0.318353 109.276 0.341173C109.284 0.363993 109.288 0.38841 109.286 0.412738V5.35451H110.343C112.046 3.83473 113.61 2.16558 115.016 0.367034C115.044 0.32171 115.084 0.285118 115.132 0.261394C115.18 0.237669 115.233 0.227757 115.286 0.232778H117.47C117.577 0.232778 117.631 0.287052 117.631 0.358465C117.626 0.409017 117.604 0.456323 117.568 0.492722C115.883 2.59783 114.01 4.54585 111.973 6.31287C114.218 8.21408 116.303 10.2963 118.208 12.5386C118.307 12.66 118.254 12.7686 118.111 12.7686Z" fill="#67788A"/>
<path d="M125.654 12.7486C126.054 11.4003 126.512 9.9997 127.028 8.54669C127.544 7.09367 128.092 5.6578 128.673 4.23906C129.254 2.82128 129.838 1.48205 130.424 0.221375H132.25C132.841 1.47919 133.425 2.81842 134.003 4.23906C134.581 5.6597 135.13 7.09558 135.65 8.54669C136.169 10.0007 136.626 11.4013 137.02 12.7486H135.4C135.245 12.1773 135.073 11.5884 134.885 10.9819C134.696 10.3753 134.498 9.75928 134.29 9.1337H128.329C128.12 9.75928 127.922 10.3753 127.733 10.9819C127.545 11.5884 127.373 12.1773 127.219 12.7486H125.654ZM128.812 7.73687H133.811C133.423 6.65139 133.016 5.57496 132.589 4.50757C132.163 3.44019 131.738 2.43184 131.314 1.48253C130.897 2.4347 130.474 3.44305 130.044 4.50757C129.615 5.5721 129.204 6.64853 128.812 7.73687Z" fill="#1C2B33"/>
<path d="M139.994 12.7486V0.221375H141.487V12.7486H139.994Z" fill="#1C2B33"/>
</g>
<defs>
<clipPath id="clip0">
<rect width="141.492" height="13" fill="white"/>
</clipPath>
</defs>
</svg>
