<svg width="72" height="72" viewBox="0 0 72 72" fill="none" xmlns="http://www.w3.org/2000/svg">
<g clip-path="url(#clip0)">
<rect x="21.5996" y="17.28" width="36" height="11.52" rx="4" fill="#9BA2BC" stroke="#323232" stroke-width="2"/>
<line x1="56.5996" y1="24.04" x2="45.6396" y2="24.04" stroke="#323232" stroke-width="2" stroke-linecap="round"/>
<path d="M47.9313 54.72H15.8398C19.6164 40.6127 18.1091 32.1283 20.4985 20.3284C20.8627 18.5298 22.4756 17.28 24.3106 17.28H51.8309C52.5308 17.28 53.0145 17.9811 52.7865 18.6427C48.0646 32.3434 52.4849 40.526 47.9313 54.72Z" fill="white" stroke="#323232" stroke-width="2" stroke-linejoin="round"/>
<path d="M40.0924 37.9433C40.181 37.7474 40.4592 37.7474 40.5479 37.9433L41.5687 40.1993C41.6294 40.3334 41.7922 40.3863 41.9201 40.3135L44.072 39.0884C44.2589 38.982 44.484 39.1455 44.4406 39.3561L43.9404 41.7813C43.9106 41.9254 44.0113 42.064 44.1576 42.0802L46.6186 42.354C46.8323 42.3777 46.9183 42.6423 46.7594 42.7872L44.9293 44.4552C44.8205 44.5543 44.8205 44.7256 44.9293 44.8247L46.7594 46.4927C46.9183 46.6376 46.8323 46.9022 46.6186 46.9259L44.1576 47.1996C44.0113 47.2159 43.9106 47.3544 43.9404 47.4986L44.4406 49.9238C44.484 50.1344 44.2589 50.2979 44.072 50.1915L41.9201 48.9664C41.7922 48.8936 41.6294 48.9465 41.5687 49.0806L40.5479 51.3366C40.4592 51.5325 40.181 51.5325 40.0924 51.3366L39.0715 49.0806C39.0109 48.9465 38.848 48.8936 38.7201 48.9664L36.5682 50.1915C36.3813 50.2979 36.1562 50.1344 36.1997 49.9238L36.6999 47.4986C36.7296 47.3544 36.6289 47.2159 36.4826 47.1996L34.0216 46.9259C33.8079 46.9022 33.7219 46.6376 33.8809 46.4927L35.711 44.8247C35.8198 44.7256 35.8198 44.5543 35.711 44.4552L33.8809 42.7872C33.7219 42.6423 33.8079 42.3777 34.0216 42.354L36.4826 42.0802C36.6289 42.064 36.7296 41.9254 36.6999 41.7813L36.1997 39.3561C36.1562 39.1455 36.3813 38.982 36.5682 39.0884L38.7201 40.3135C38.848 40.3863 39.0109 40.3334 39.0715 40.1993L40.0924 37.9433Z" fill="#323232"/>
<line x1="28.3604" y1="26.36" x2="43.6404" y2="26.36" stroke="#323232" stroke-width="2" stroke-linecap="round"/>
<line x1="26.9199" y1="32.12" x2="42.1999" y2="32.12" stroke="#323232" stroke-width="2" stroke-linecap="round"/>
<line x1="24.04" y1="46.52" x2="29.24" y2="46.52" stroke="#323232" stroke-width="2" stroke-linecap="round"/>
</g>
<defs>
<clipPath id="clip0">
<rect width="72" height="72" fill="white"/>
</clipPath>
</defs>
</svg>
